<svg version="1.1" id="Layer_1" xmlns="http://www.w3.org/2000/svg" xmlns:xlink="http://www.w3.org/1999/xlink" x="0px" y="0px"
	 width="100%" viewBox="0 0 1024 1024" enable-background="new 0 0 1024 1024" xml:space="preserve">
<path fill="#FFFBF4" opacity="1.000000" stroke="none" 
	d="
M550.000000,1025.000000 
	C366.666656,1025.000000 183.833328,1025.000000 1.000000,1025.000000 
	C1.000000,683.666687 1.000000,342.333344 1.000000,1.000000 
	C342.333344,1.000000 683.666687,1.000000 1025.000000,1.000000 
	C1025.000000,342.333344 1025.000000,683.666687 1025.000000,1025.000000 
	C866.833313,1025.000000 708.666687,1025.000000 550.000000,1025.000000 
M277.437744,511.570007 
	C277.437744,511.570007 277.648102,511.663483 277.785522,511.986176 
	C277.926208,512.188965 278.117462,512.315002 278.459991,512.469360 
	C278.459991,512.469360 278.559540,512.575500 278.763000,513.054626 
	C279.126831,513.423218 279.490662,513.791809 279.838196,514.157288 
	C279.838196,514.157288 279.815704,514.167297 280.005310,514.943665 
	C280.163910,517.862854 281.031738,520.957642 280.359924,523.671204 
	C277.243164,536.261108 273.648010,548.731628 270.335663,561.274414 
	C269.125641,565.856323 268.370819,570.553589 272.552368,574.206482 
	C276.758484,577.880920 281.611664,578.140564 286.544800,576.037109 
	C289.582825,574.741638 292.449036,573.018616 295.321899,571.365112 
	C304.357574,566.164734 313.353394,560.895264 322.377869,555.675354 
	C326.693298,553.179260 330.804535,553.682861 335.087189,556.121704 
	C346.586456,562.670166 358.189423,569.037537 369.785309,575.414856 
	C374.322479,577.910095 379.028442,578.396057 383.379303,575.155151 
	C388.129333,571.616882 387.837555,566.583557 386.576202,561.558838 
	C383.630829,549.825867 380.969543,537.998779 377.416443,526.448730 
	C374.714355,517.665039 376.165710,510.966919 384.098053,506.016571 
	C384.238403,505.928955 384.402283,505.870605 384.524414,505.763550 
	C393.774811,497.653931 403.184845,489.716400 412.205353,481.358551 
	C417.201599,476.729401 416.792023,471.712463 411.768066,466.589600 
	C411.768066,466.589600 411.561432,466.555878 411.310455,466.471436 
	C411.310455,466.471436 411.116211,466.651337 410.818390,466.012848 
	C408.813080,465.311615 406.846497,464.158234 404.796173,463.982666 
	C391.706329,462.861603 378.610718,461.541595 365.490906,461.140656 
	C358.099915,460.914734 354.213562,457.755676 352.088623,451.052246 
	C348.132111,438.570953 343.888580,426.180847 339.805634,413.739288 
	C338.267548,409.052521 335.110199,405.752075 330.308746,405.419617 
	C325.706421,405.100983 322.004913,407.708466 320.117096,412.112762 
	C314.700073,424.750549 309.225677,437.367950 304.088287,450.120026 
	C300.499817,459.027405 296.876740,461.616638 287.368225,461.930237 
	C275.083771,462.335327 262.808136,463.066803 250.537857,463.809418 
	C245.969849,464.085876 243.253098,467.157501 242.160629,471.236298 
	C241.128387,475.090179 240.866058,479.040833 244.538666,482.189880 
	C252.947296,489.399933 261.233398,496.753448 269.528107,504.095215 
	C272.075684,506.350098 274.489777,508.755798 277.076141,511.304291 
	C277.076141,511.304291 277.301605,511.384399 277.437744,511.570007 
M935.865967,511.287476 
	C935.995422,510.922546 936.124939,510.557617 936.236023,510.339020 
	C936.236023,510.339020 936.381714,510.361908 937.027222,510.318420 
	C938.455139,509.071136 939.883118,507.823853 941.372192,506.396881 
	C941.372192,506.396881 941.229919,506.271210 941.906372,506.310181 
	C942.017883,505.932312 942.129395,505.554443 942.241882,505.392975 
	C942.241882,505.392975 942.457092,505.416199 943.055359,505.422943 
	C943.777405,504.699371 944.499451,503.975800 945.212463,503.160553 
	C945.212463,503.160553 945.144714,503.222931 945.768799,503.113983 
	C946.285950,502.516815 946.803101,501.919617 947.425232,501.466492 
	C947.425232,501.466492 947.600708,501.434723 947.856689,501.376343 
	C947.856689,501.376343 947.967651,501.138397 948.610107,500.893738 
	C952.463135,497.302002 956.316223,493.710266 960.856384,490.038055 
	C964.051147,487.167236 967.428650,484.471283 970.390015,481.377045 
	C973.426392,478.204376 974.945068,474.293915 972.790283,470.010925 
	C970.568665,465.595184 966.643494,463.661621 961.776917,463.575226 
	C960.309937,463.549164 958.834045,463.728088 957.374573,463.629944 
	C949.240845,463.083008 941.116211,462.097748 932.978394,461.982788 
	C919.786194,461.796448 913.310303,460.329437 908.780701,446.475891 
	C904.884277,434.559082 899.361206,423.160919 894.310730,411.641571 
	C892.450806,407.399445 889.447815,403.726929 884.183044,404.169678 
	C878.895142,404.614410 874.776978,407.091705 872.938843,412.569733 
	C871.517639,416.805115 869.626953,420.882507 868.192139,425.113953 
	C865.258850,433.764709 862.600830,442.509521 859.618896,451.142853 
	C857.549988,457.132629 853.442749,460.800476 846.812378,461.126862 
	C834.868225,461.714783 822.927002,462.361359 810.982422,462.940796 
	C805.865356,463.189026 802.045532,465.524475 800.102356,470.219635 
	C798.051392,475.175140 798.353760,479.961395 802.729248,484.099548 
	C802.729248,484.099548 803.115723,484.395111 803.414307,484.927338 
	C804.003723,485.466400 804.593140,486.005432 805.607910,487.061340 
	C807.310547,488.437683 809.013184,489.814056 810.756958,491.189697 
	C810.756958,491.189697 810.796509,491.179504 810.969910,491.696777 
	C811.276672,491.882935 811.583435,492.069061 812.057922,492.661896 
	C812.240906,492.915405 812.487549,493.061218 813.102234,493.641052 
	C813.927246,494.221497 814.752319,494.801941 815.650330,495.339813 
	C815.650330,495.339813 815.662170,495.423492 815.922180,495.979126 
	C816.910095,496.724396 817.898071,497.469666 819.219177,498.784546 
	C822.494324,501.604645 825.579834,504.691986 829.089172,507.182007 
	C834.316406,510.891144 836.967041,515.562317 835.962097,522.765259 
	C832.142883,535.767700 828.299866,548.763245 824.517273,561.776306 
	C823.176697,566.388245 823.708801,570.540833 827.408447,574.107544 
	C832.403381,578.923218 837.580139,579.686401 844.668213,575.864258 
	C853.566223,571.066223 862.504456,566.306213 871.126160,561.040039 
	C888.128967,550.654724 885.239868,552.438416 900.019226,561.607727 
	C908.300415,566.745483 916.766296,571.675049 925.521912,575.931335 
	C933.025574,579.578918 942.768372,575.852112 943.166321,569.655640 
	C943.467773,564.962585 943.242493,560.043030 942.142639,555.492310 
	C939.773987,545.691528 936.878235,536.003906 933.822021,526.389465 
	C932.260376,521.476685 931.302551,516.858643 934.179626,512.114502 
	C934.179626,512.114502 934.191589,512.248169 934.843140,512.315613 
	C934.980103,511.938782 935.117065,511.561981 935.141052,511.175537 
	C935.141052,511.175537 935.206787,511.267822 935.865967,511.287476 
M629.932739,494.041046 
	C629.932739,494.041046 629.857300,494.090759 630.155029,494.729004 
	C630.738525,494.908752 631.321960,495.088501 631.995972,495.145020 
	C631.995972,495.145020 631.867737,495.061676 631.646545,495.809601 
	C632.079834,495.913300 632.513184,496.017029 632.733276,496.114105 
	C632.733276,496.114105 632.702454,496.325165 632.704102,496.977783 
	C637.687012,501.346771 642.722473,505.657806 647.633118,510.106567 
	C650.567749,512.765137 651.479553,515.955872 650.409485,520.007385 
	C646.904297,533.278687 643.427002,546.567200 640.441223,559.961060 
	C639.190369,565.572144 638.483276,571.579773 644.227478,575.870117 
	C649.589966,579.875366 654.164062,577.315918 658.909912,574.572998 
	C669.399902,568.510132 680.078735,562.765320 690.449951,556.508789 
	C696.517517,552.848450 701.842712,552.832397 707.949097,556.591309 
	C718.535522,563.107910 729.492981,569.022461 740.306763,575.168457 
	C744.953613,577.809509 749.481873,576.837158 753.352722,573.827637 
	C757.138000,570.884644 757.649841,566.592102 756.485901,562.041138 
	C753.276184,549.490295 750.544495,536.796143 746.769165,524.419312 
	C744.617493,517.365662 746.688599,512.482178 751.615051,508.023468 
	C756.306396,503.777527 761.096985,499.641327 765.788147,495.395203 
	C772.035339,489.740723 778.228577,484.026611 784.419250,478.284576 
	C784.419250,478.284576 784.400208,478.228302 785.068115,477.906708 
	C784.997131,474.651489 784.926208,471.396301 784.774414,467.449554 
	C781.416931,465.627228 778.168640,462.514801 774.681824,462.219604 
	C763.297974,461.255951 751.819092,460.912872 740.392761,461.139862 
	C733.484924,461.277100 728.077148,459.586823 724.155212,453.946075 
	C724.155212,453.946075 724.229187,453.835083 724.123108,453.212494 
	C723.730347,452.477386 723.337585,451.742279 722.938110,450.232513 
	C718.628296,437.898804 714.606995,425.453796 709.906494,413.270844 
	C706.810852,405.247375 699.747375,402.176056 693.243958,406.061920 
	C690.147766,407.911896 687.540710,411.603363 686.116882,415.042328 
	C681.372620,426.500336 677.255432,438.218414 672.914673,449.843079 
	C668.984009,460.369659 666.713928,461.793945 655.288635,461.961975 
	C645.655273,462.103607 636.017151,462.453583 626.401428,463.042694 
	C621.704468,463.330444 617.190247,464.587372 614.980469,469.571014 
	C612.709106,474.693604 614.331543,478.984833 617.869080,482.785675 
	C620.466614,485.576630 623.222046,488.220642 626.112305,491.557861 
	C627.044312,492.094147 627.976257,492.630402 628.979248,493.090088 
	C628.979248,493.090088 628.897461,493.025146 628.997437,493.592529 
	C629.320740,493.769836 629.644104,493.947144 629.932739,494.041046 
M150.929214,411.298553 
	C150.650986,411.011566 150.372757,410.724548 150.020950,409.792023 
	C142.911835,402.036194 135.038986,403.400177 131.115356,413.080719 
	C130.679047,414.157135 130.406662,415.299530 129.979156,416.380035 
	C124.976784,429.024200 120.179527,441.757751 114.779938,454.230347 
	C113.539406,457.095917 110.215637,459.059631 106.961250,461.680023 
	C93.601128,462.265472 80.234703,462.743408 66.886124,463.525787 
	C64.168472,463.685059 61.517975,464.990021 58.829987,465.851898 
	C58.829987,465.851898 58.912540,465.873413 58.225277,465.787262 
	C58.113979,466.167633 58.002682,466.548004 57.864632,466.800873 
	C57.864632,466.800873 57.734463,466.806305 57.035847,466.873505 
	C52.990829,472.858093 53.192215,476.344757 57.939487,480.985260 
	C57.939487,480.985260 57.838394,481.138977 58.086781,481.673859 
	C58.683044,482.169861 59.279312,482.665863 59.818474,483.178894 
	C59.818474,483.178894 59.802475,483.236298 60.118145,483.816803 
	C69.152596,492.889130 78.128754,502.020569 87.247513,511.007355 
	C91.442657,515.141724 92.917450,519.672424 91.113274,525.443604 
	C87.401680,537.316223 83.913132,549.258972 80.383446,561.187866 
	C78.563141,567.339722 80.485573,572.216675 85.496689,576.122925 
	C90.129128,579.734009 94.874603,579.931335 99.853172,577.061584 
	C109.203789,571.671631 118.492455,566.172424 127.893997,560.873169 
	C135.653931,556.499268 142.984955,551.635742 152.543808,558.133362 
	C162.108627,564.635071 172.580643,569.817200 182.743790,575.416626 
	C187.346725,577.952576 192.199692,579.888306 197.177856,576.135254 
	C201.618317,572.787720 203.146805,567.203613 201.406357,560.905457 
	C198.154648,549.138489 194.919846,537.366577 191.595169,525.620178 
	C190.205582,520.710693 190.172424,515.954407 193.539093,511.896301 
	C196.697952,508.088654 200.049057,504.376282 203.721405,501.073212 
	C210.012085,495.415222 216.596039,490.081207 223.102371,484.665802 
	C226.986115,481.433258 229.345764,477.642242 227.517670,472.461182 
	C225.570953,466.944000 221.177246,464.459229 215.659058,464.010712 
	C205.039154,463.147552 194.407516,462.384644 183.768082,461.818146 
	C172.517258,461.219147 169.516312,457.890839 166.294449,448.893982 
	C165.623611,447.020691 165.154205,445.070435 164.410675,443.228821 
	C161.386276,435.737701 158.291397,428.275085 155.136948,420.844147 
	C155.136948,420.844147 155.127045,420.939026 155.264816,420.179932 
	C153.893860,417.429230 152.522903,414.678497 151.091156,411.941010 
	C151.091156,411.941010 151.108459,411.881226 150.929214,411.298553 
M568.287109,575.260254 
	C568.287109,575.260254 568.387756,575.154480 568.930542,574.817810 
	C572.906799,570.901001 574.299316,566.343628 572.224731,560.118774 
	C571.961426,558.494507 571.852539,556.826721 571.410034,555.252869 
	C568.226562,543.931274 565.051208,532.606323 561.703003,521.332947 
	C560.593445,517.596924 561.074219,514.369812 563.861938,511.737030 
	C569.682922,506.239532 575.551086,500.785583 581.558655,495.493958 
	C587.064331,490.644379 592.999329,486.266510 598.337708,481.247375 
	C603.471252,476.420868 602.488525,468.666656 596.437622,465.239746 
	C594.073730,463.900940 591.123413,463.174225 588.385315,462.991852 
	C575.425537,462.128662 562.433594,461.721558 549.485413,460.730225 
	C546.791992,460.523987 543.267029,459.225677 541.821289,457.212616 
	C538.985168,453.263489 537.073242,448.564087 535.259094,443.984924 
	C531.045837,433.349823 527.162537,422.584534 523.054443,411.907013 
	C521.189880,407.060669 517.134949,405.083038 512.335999,405.367981 
	C507.738281,405.640991 504.499512,408.123505 502.750580,412.811523 
	C497.995453,425.557556 492.846741,438.156097 487.974213,450.859192 
	C485.558716,457.156586 481.717438,460.908691 474.456360,461.241852 
	C462.998718,461.767548 451.540771,462.697601 440.143280,463.988647 
	C431.615204,464.954681 427.226044,473.854553 432.579681,480.173920 
	C439.761139,488.650848 447.492950,496.948303 456.208557,503.762238 
	C465.931824,511.364044 468.077209,514.596741 465.005676,526.600403 
	C461.801178,539.123779 458.529419,551.633362 455.590302,564.219727 
	C454.369263,569.448730 456.772949,573.859070 461.011963,576.741577 
	C465.112183,579.529724 469.524902,578.679688 473.653168,576.129028 
	C484.215820,569.602966 494.849396,563.190308 505.358368,556.579285 
	C511.291199,552.847107 516.662781,553.547668 522.577087,556.994263 
	C534.015808,563.660278 545.768127,569.788391 557.900574,576.488892 
	C561.314148,576.076599 564.727722,575.664368 568.287109,575.260254 
z"/>
<path fill="#8240F9" opacity="1.000000" stroke="none" 
	d="
M557.390442,576.139404 
	C545.768127,569.788391 534.015808,563.660278 522.577087,556.994263 
	C516.662781,553.547668 511.291199,552.847107 505.358368,556.579285 
	C494.849396,563.190308 484.215820,569.602966 473.653168,576.129028 
	C469.524902,578.679688 465.112183,579.529724 461.011963,576.741577 
	C456.772949,573.859070 454.369263,569.448730 455.590302,564.219727 
	C458.529419,551.633362 461.801178,539.123779 465.005676,526.600403 
	C468.077209,514.596741 465.931824,511.364044 456.208557,503.762238 
	C447.492950,496.948303 439.761139,488.650848 432.579681,480.173920 
	C427.226044,473.854553 431.615204,464.954681 440.143280,463.988647 
	C451.540771,462.697601 462.998718,461.767548 474.456360,461.241852 
	C481.717438,460.908691 485.558716,457.156586 487.974213,450.859192 
	C492.846741,438.156097 497.995453,425.557556 502.750580,412.811523 
	C504.499512,408.123505 507.738281,405.640991 512.335999,405.367981 
	C517.134949,405.083038 521.189880,407.060669 523.054443,411.907013 
	C527.162537,422.584534 531.045837,433.349823 535.259094,443.984924 
	C537.073242,448.564087 538.985168,453.263489 541.821289,457.212616 
	C543.267029,459.225677 546.791992,460.523987 549.485413,460.730225 
	C562.433594,461.721558 575.425537,462.128662 588.385315,462.991852 
	C591.123413,463.174225 594.073730,463.900940 596.437622,465.239746 
	C602.488525,468.666656 603.471252,476.420868 598.337708,481.247375 
	C592.999329,486.266510 587.064331,490.644379 581.558655,495.493958 
	C575.551086,500.785583 569.682922,506.239532 563.861938,511.737030 
	C561.074219,514.369812 560.593445,517.596924 561.703003,521.332947 
	C565.051208,532.606323 568.226562,543.931274 571.410034,555.252869 
	C571.852539,556.826721 571.961426,558.494507 572.176270,560.941956 
	C570.881042,566.228271 569.634399,570.691345 568.387756,575.154480 
	C568.387756,575.154480 568.287109,575.260254 567.800415,575.176208 
	C564.005981,575.441223 560.698242,575.790344 557.390442,576.139404 
M491.579102,466.023956 
	C491.705170,465.668213 491.831207,465.312500 492.660950,465.121094 
	C494.176270,462.799561 496.106049,460.646301 497.129517,458.125092 
	C500.252472,450.432068 502.932495,442.560486 505.966827,434.829834 
	C508.267914,428.967468 510.847351,423.214355 513.868164,416.077057 
	C511.954315,418.569519 510.146423,420.135406 509.331970,422.110870 
	C503.453156,436.369446 497.775482,450.710938 491.520172,465.137207 
	C491.358521,465.433655 491.196869,465.730103 490.513733,466.142426 
	C490.351532,466.439758 490.189301,466.737122 489.299408,467.139099 
	C486.042725,468.134064 482.846069,469.577148 479.515869,470.023315 
	C473.933624,470.771271 468.264008,470.854126 462.635284,471.272308 
	C456.986267,471.691986 451.342255,472.179474 444.492096,472.734863 
	C446.051331,473.504456 446.443024,473.876740 446.807770,473.851929 
	C459.227844,473.007812 471.662842,472.303070 484.046112,471.076935 
	C486.131927,470.870422 487.992554,468.389099 490.573212,466.996124 
	C490.701080,466.649506 490.828918,466.302856 491.579102,466.023956 
z"/>
<path fill="#25DC9E" opacity="1.000000" stroke="none" 
	d="
M802.607666,483.889832 
	C798.353760,479.961395 798.051392,475.175140 800.102356,470.219635 
	C802.045532,465.524475 805.865356,463.189026 810.982422,462.940796 
	C822.927002,462.361359 834.868225,461.714783 846.812378,461.126862 
	C853.442749,460.800476 857.549988,457.132629 859.618896,451.142853 
	C862.600830,442.509521 865.258850,433.764709 868.192139,425.113953 
	C869.626953,420.882507 871.517639,416.805115 872.938843,412.569733 
	C874.776978,407.091705 878.895142,404.614410 884.183044,404.169678 
	C889.447815,403.726929 892.450806,407.399445 894.310730,411.641571 
	C899.361206,423.160919 904.884277,434.559082 908.780701,446.475891 
	C913.310303,460.329437 919.786194,461.796448 932.978394,461.982788 
	C941.116211,462.097748 949.240845,463.083008 957.374573,463.629944 
	C958.834045,463.728088 960.309937,463.549164 961.776917,463.575226 
	C966.643494,463.661621 970.568665,465.595184 972.790283,470.010925 
	C974.945068,474.293915 973.426392,478.204376 970.390015,481.377045 
	C967.428650,484.471283 964.051147,487.167236 960.101562,490.041809 
	C956.789551,490.969757 954.204773,491.825348 951.683350,492.838623 
	C949.416809,493.749420 947.260437,494.940155 944.979553,495.807617 
	C943.115723,496.516418 940.711304,496.407562 939.291931,497.570770 
	C934.551941,501.455444 930.030945,505.631775 925.674561,509.947357 
	C924.092834,511.514343 923.635742,514.861694 921.929688,515.536621 
	C916.909302,517.522583 911.595215,519.151978 906.256165,519.847534 
	C899.770142,520.692505 892.961487,519.571228 886.618958,520.881287 
	C878.260925,522.607727 870.194153,525.792236 862.052490,528.501343 
	C856.318665,530.409363 850.764160,533.188171 843.879700,531.328125 
	C844.479187,529.348083 845.282898,527.678345 845.452332,525.946594 
	C845.930176,521.064392 846.913147,516.050781 846.255005,511.288300 
	C845.577271,506.384277 839.773926,506.988098 836.476074,504.775757 
	C829.471069,500.076599 822.314697,495.589142 815.492004,490.640289 
	C813.239502,489.006348 812.000000,488.080902 810.715820,491.190430 
	C809.013184,489.814056 807.310547,488.437683 805.620483,486.676331 
	C805.766846,486.182770 805.900635,486.074249 806.309937,486.096436 
	C807.186218,486.292389 807.787048,486.357574 808.387878,486.422791 
	C807.354004,484.911591 806.379578,483.350159 805.203979,481.958740 
	C805.071289,481.801697 803.803467,482.603638 802.921021,483.179688 
	C802.722595,483.562286 802.665100,483.726044 802.607666,483.889832 
M815.261414,472.010376 
	C815.102905,472.061432 814.929443,472.087830 814.790894,472.171783 
	C814.691528,472.231995 814.638794,472.369171 814.565247,472.471985 
	C815.357727,472.860077 816.157654,473.599884 816.941589,473.583191 
	C828.086792,473.346466 839.241028,473.217743 850.369995,472.628387 
	C859.811401,472.128418 866.867493,467.656860 870.089478,458.429749 
	C874.198364,446.663086 877.969604,434.778473 882.087158,423.015015 
	C882.857056,420.815491 884.571777,418.946777 886.464661,415.954407 
	C884.815918,416.705658 883.130554,416.973511 882.329468,417.959656 
	C881.221436,419.323578 880.651794,421.185516 880.072693,422.908508 
	C876.317444,434.082062 872.706299,445.304688 868.880066,456.453644 
	C865.892212,465.159698 860.001770,470.259644 850.461243,470.594727 
	C838.986938,470.997711 827.516052,471.496887 815.261414,472.010376 
z"/>
<path fill="#FF8331" opacity="1.000000" stroke="none" 
	d="
M155.222488,420.801941 
	C158.291397,428.275085 161.386276,435.737701 164.410675,443.228821 
	C165.154205,445.070435 165.623611,447.020691 166.294449,448.893982 
	C169.516312,457.890839 172.517258,461.219147 183.768082,461.818146 
	C194.407516,462.384644 205.039154,463.147552 215.659058,464.010712 
	C221.177246,464.459229 225.570953,466.944000 227.517670,472.461182 
	C229.345764,477.642242 226.986115,481.433258 223.102371,484.665802 
	C216.596039,490.081207 210.012085,495.415222 203.721405,501.073212 
	C200.049057,504.376282 196.697952,508.088654 193.539093,511.896301 
	C190.172424,515.954407 190.205582,520.710693 191.595169,525.620178 
	C194.919846,537.366577 198.154648,549.138489 201.406357,560.905457 
	C203.146805,567.203613 201.618317,572.787720 197.177856,576.135254 
	C192.199692,579.888306 187.346725,577.952576 182.743790,575.416626 
	C172.580643,569.817200 162.108627,564.635071 152.543808,558.133362 
	C142.984955,551.635742 135.653931,556.499268 127.893997,560.873169 
	C118.492455,566.172424 109.203789,571.671631 99.853172,577.061584 
	C94.874603,579.931335 90.129128,579.734009 85.496689,576.122925 
	C80.485573,572.216675 78.563141,567.339722 80.383446,561.187866 
	C83.913132,549.258972 87.401680,537.316223 91.113274,525.443604 
	C92.917450,519.672424 91.442657,515.141724 87.247513,511.007355 
	C78.128754,502.020569 69.152596,492.889130 60.315804,483.461884 
	C61.113777,483.356506 61.813503,483.482513 62.299812,483.873749 
	C72.842461,492.356659 83.049278,501.301392 94.004425,509.210144 
	C100.348480,513.790039 104.280052,518.360657 100.880081,526.889526 
	C129.518112,503.656952 164.526917,493.888702 195.597305,474.588776 
	C193.103271,473.906952 191.365189,473.258301 189.569489,472.975220 
	C185.172195,472.281921 180.703674,471.982117 176.344742,471.116516 
	C168.229141,469.504913 167.492584,467.471588 166.811447,459.575409 
	C166.268524,453.281433 163.847198,447.114410 161.968719,440.980133 
	C159.892822,434.201141 157.485474,427.523651 155.222488,420.801941 
z"/>
<path fill="#09C8EE" opacity="1.000000" stroke="none" 
	d="
M625.907104,490.930145 
	C623.222046,488.220642 620.466614,485.576630 617.869080,482.785675 
	C614.331543,478.984833 612.709106,474.693604 614.980469,469.571014 
	C617.190247,464.587372 621.704468,463.330444 626.401428,463.042694 
	C636.017151,462.453583 645.655273,462.103607 655.288635,461.961975 
	C666.713928,461.793945 668.984009,460.369659 672.914673,449.843079 
	C677.255432,438.218414 681.372620,426.500336 686.116882,415.042328 
	C687.540710,411.603363 690.147766,407.911896 693.243958,406.061920 
	C699.747375,402.176056 706.810852,405.247375 709.906494,413.270844 
	C714.606995,425.453796 718.628296,437.898804 722.687378,450.832001 
	C723.034119,452.232697 723.631653,453.033905 724.229187,453.835083 
	C724.229187,453.835083 724.155212,453.946075 724.104858,454.262085 
	C726.348755,458.066742 728.417969,461.733795 731.002441,464.992249 
	C733.447144,468.074524 736.163391,470.277863 740.957703,470.151001 
	C751.725708,469.866058 762.522522,470.583252 773.303589,470.996582 
	C774.481506,471.041779 775.633423,471.766449 776.797363,472.175964 
	C776.231140,473.420624 775.969543,475.000000 775.040283,475.845825 
	C772.481445,478.175049 769.642883,480.197021 767.727051,481.702454 
	C765.450500,481.234283 763.957336,480.533508 762.574890,480.708160 
	C754.745605,481.697327 746.879700,482.591949 739.167114,484.196198 
	C736.628784,484.724182 732.542908,487.314270 732.575867,488.889923 
	C732.668701,493.320129 734.187317,497.853699 735.876099,502.051880 
	C736.554993,503.739655 739.143616,504.659149 740.587830,506.123352 
	C734.522644,510.796448 734.060547,516.623352 735.877808,523.154602 
	C737.059448,527.401733 737.950195,531.729797 738.691040,535.794556 
	C737.049500,532.697693 736.369629,528.107727 734.210449,527.252380 
	C724.219788,523.294983 713.707825,520.709900 702.819641,522.424866 
	C700.758850,522.749390 699.052551,525.324890 696.779297,526.911377 
	C688.028137,528.963135 679.664917,530.903503 671.338623,532.991150 
	C666.511719,534.201294 661.065491,533.664856 656.815918,538.527222 
	C657.165588,536.466736 657.432739,535.190796 657.592346,533.901428 
	C658.382751,527.516785 659.381348,521.142456 659.755798,514.732361 
	C659.853394,513.061768 658.390808,510.696869 656.929321,509.644714 
	C651.197754,505.518463 645.269287,501.641083 639.214905,498.002533 
	C637.373230,496.895721 634.891235,496.854431 632.702454,496.325165 
	C632.702454,496.325165 632.733276,496.114105 632.757446,495.856720 
	C632.477051,495.420135 632.172363,495.240906 631.867737,495.061676 
	C631.867737,495.061676 631.995972,495.145020 631.850586,494.880096 
	C631.089294,494.440369 630.473267,494.265564 629.857300,494.090759 
	C629.857300,494.090759 629.932739,494.041046 629.871399,493.816833 
	C629.505859,493.403473 629.201660,493.214294 628.897461,493.025146 
	C628.897461,493.025146 628.979248,493.090088 628.972656,492.789612 
	C627.946411,491.969482 626.926758,491.449799 625.907104,490.930145 
M634.634583,473.654175 
	C644.286865,473.347961 653.937683,472.983093 663.591736,472.751068 
	C674.518616,472.488373 679.078003,469.385254 682.851624,458.895355 
	C686.906494,447.623566 690.627991,436.231140 694.741455,424.981506 
	C695.785583,422.125916 697.765198,419.612427 699.587708,416.471741 
	C698.171814,417.386566 696.477051,417.989258 695.573486,419.188141 
	C694.406677,420.736328 693.740356,422.715149 693.087158,424.588257 
	C689.202454,435.728027 685.457275,446.916779 681.521545,458.038239 
	C677.851074,468.409912 673.907898,471.091003 663.124207,471.326538 
	C652.636658,471.555634 642.151917,471.931396 631.668030,472.300781 
	C630.150391,472.354248 628.644287,472.731598 627.132874,472.959045 
	C627.172119,473.199982 627.211426,473.440918 627.250671,473.681854 
	C629.401917,473.681854 631.553101,473.681854 634.634583,473.654175 
z"/>
<path fill="#FF5974" opacity="1.000000" stroke="none" 
	d="
M411.908020,466.745239 
	C416.792023,471.712463 417.201599,476.729401 412.205353,481.358551 
	C403.184845,489.716400 393.774811,497.653931 384.524414,505.763550 
	C384.402283,505.870605 384.238403,505.928955 384.098053,506.016571 
	C376.165710,510.966919 374.714355,517.665039 377.416443,526.448730 
	C380.969543,537.998779 383.630829,549.825867 386.576202,561.558838 
	C387.837555,566.583557 388.129333,571.616882 383.379303,575.155151 
	C379.028442,578.396057 374.322479,577.910095 369.785309,575.414856 
	C358.189423,569.037537 346.586456,562.670166 335.087189,556.121704 
	C330.804535,553.682861 326.693298,553.179260 322.377869,555.675354 
	C313.353394,560.895264 304.357574,566.164734 295.321899,571.365112 
	C292.449036,573.018616 289.582825,574.741638 286.544800,576.037109 
	C281.611664,578.140564 276.758484,577.880920 272.552368,574.206482 
	C268.370819,570.553589 269.125641,565.856323 270.335663,561.274414 
	C273.648010,548.731628 277.243164,536.261108 280.359924,523.671204 
	C281.031738,520.957642 280.163910,517.862854 280.265411,514.572937 
	C283.285126,518.388184 286.044769,522.574097 289.480927,527.786255 
	C290.305756,523.226807 290.887787,520.009521 291.361725,517.389648 
	C294.587555,515.019226 297.426758,512.859802 300.339691,510.804871 
	C314.015198,501.157318 329.092804,494.253845 344.483337,487.856018 
	C351.458466,484.956512 358.114960,481.211121 364.664307,477.415283 
	C366.619720,476.281921 367.722626,473.677673 369.714355,471.103485 
	C379.998749,471.103485 391.618591,471.103485 403.238434,471.103485 
	C397.286896,470.480042 391.385254,470.264771 386.684113,463.919739 
	C389.775543,464.141815 391.882111,464.208160 393.966431,464.459198 
	C399.688019,465.148438 405.400269,465.915222 411.116211,466.651337 
	C411.116211,466.651337 411.310455,466.471436 411.330017,466.705505 
	C411.535736,466.874817 411.721863,466.810028 411.908020,466.745239 
z"/>
<path fill="#FFC53C" opacity="1.000000" stroke="none" 
	d="
M155.179718,420.823059 
	C157.485474,427.523651 159.892822,434.201141 161.968719,440.980133 
	C163.847198,447.114410 166.268524,453.281433 166.811447,459.575409 
	C167.492584,467.471588 168.229141,469.504913 176.344742,471.116516 
	C180.703674,471.982117 185.172195,472.281921 189.569489,472.975220 
	C191.365189,473.258301 193.103271,473.906952 195.597305,474.588776 
	C164.526917,493.888702 129.518112,503.656952 100.880081,526.889526 
	C104.280052,518.360657 100.348480,513.790039 94.004425,509.210144 
	C83.049278,501.301392 72.842461,492.356659 62.299812,483.873749 
	C61.813503,483.482513 61.113777,483.356506 60.157967,483.171631 
	C59.802475,483.236298 59.818474,483.178894 59.864815,482.817200 
	C59.220234,482.016663 58.529312,481.577820 57.838390,481.138977 
	C57.838394,481.138977 57.939487,480.985260 57.954178,480.617401 
	C57.890732,475.768463 57.812595,471.287384 57.734463,466.806305 
	C57.734463,466.806305 57.864632,466.800873 58.119106,466.767578 
	C58.553230,466.447327 58.732880,466.160370 58.912537,465.873413 
	C58.912540,465.873413 58.829987,465.851898 59.264469,465.873047 
	C61.657787,465.593201 63.609657,465.092560 65.576599,465.023926 
	C77.481697,464.608612 89.395813,464.408356 101.292641,463.838135 
	C103.511871,463.731781 105.666283,462.273010 107.850601,461.438416 
	C110.215637,459.059631 113.539406,457.095917 114.779938,454.230347 
	C120.179527,441.757751 124.976784,429.024200 129.979156,416.380035 
	C130.406662,415.299530 130.679047,414.157135 131.115356,413.080719 
	C135.038986,403.400177 142.911835,402.036194 150.140427,410.415955 
	C150.542755,411.320312 150.825623,411.600769 151.108459,411.881226 
	C151.108459,411.881226 151.091156,411.941010 151.099121,412.310181 
	C152.447052,415.432587 153.787048,418.185822 155.127045,420.939026 
	C155.127045,420.939026 155.136948,420.844147 155.179718,420.823059 
M67.859444,472.869598 
	C65.822136,475.984100 68.965942,474.616730 69.593254,474.604218 
	C81.070930,474.376038 92.552582,474.164093 104.019257,473.639709 
	C110.246422,473.354919 116.639870,472.288422 120.690811,467.061920 
	C123.682976,463.201416 125.854431,458.574463 127.754280,454.022980 
	C132.751999,442.049957 137.401901,429.931763 142.190338,417.871399 
	C140.667145,417.629150 139.510864,418.114227 139.191055,418.927979 
	C134.148804,431.758881 129.177444,444.618134 124.267342,457.500366 
	C120.885094,466.373993 114.742058,471.128113 105.044090,471.361267 
	C92.902290,471.653137 80.767967,472.256195 67.859444,472.869598 
z"/>
<path fill="#FF8331" opacity="1.000000" stroke="none" 
	d="
M410.967285,466.332092 
	C405.400269,465.915222 399.688019,465.148438 393.966431,464.459198 
	C391.882111,464.208160 389.775543,464.141815 386.684113,463.919739 
	C391.385254,470.264771 397.286896,470.480042 403.238434,471.103485 
	C391.618591,471.103485 379.998749,471.103485 369.714355,471.103485 
	C367.722626,473.677673 366.619720,476.281921 364.664307,477.415283 
	C358.114960,481.211121 351.458466,484.956512 344.483337,487.856018 
	C329.092804,494.253845 314.015198,501.157318 300.339691,510.804871 
	C297.426758,512.859802 294.587555,515.019226 291.361725,517.389648 
	C290.887787,520.009521 290.305756,523.226807 289.480927,527.786255 
	C286.044769,522.574097 283.285126,518.388184 280.170593,514.184753 
	C279.815704,514.167297 279.838196,514.157288 279.853699,513.837158 
	C279.432678,513.203125 278.996124,512.889343 278.559540,512.575500 
	C278.559540,512.575500 278.459991,512.469360 278.488098,512.164185 
	C278.226837,511.793823 277.937469,511.728638 277.648102,511.663452 
	C277.648102,511.663483 277.437744,511.570007 277.494141,511.327637 
	C277.355316,511.087646 277.160156,511.090027 276.964966,511.092407 
	C274.489777,508.755798 272.075684,506.350098 269.528107,504.095215 
	C261.233398,496.753448 252.947296,489.399933 244.538666,482.189880 
	C240.866058,479.040833 241.128387,475.090179 242.160629,471.236298 
	C243.253098,467.157501 245.969849,464.085876 250.537857,463.809418 
	C262.808136,463.066803 275.083771,462.335327 287.368225,461.930237 
	C296.876740,461.616638 300.499817,459.027405 304.088287,450.120026 
	C309.225677,437.367950 314.700073,424.750549 320.117096,412.112762 
	C322.004913,407.708466 325.706421,405.100983 330.308746,405.419617 
	C335.110199,405.752075 338.267548,409.052521 339.805634,413.739288 
	C343.888580,426.180847 348.132111,438.570953 352.088623,451.052246 
	C354.213562,457.755676 358.099915,460.914734 365.490906,461.140656 
	C378.610718,461.541595 391.706329,462.861603 404.796173,463.982666 
	C406.846497,464.158234 408.813080,465.311615 410.967285,466.332092 
M312.489655,455.035950 
	C308.173004,467.907135 303.934326,470.929199 290.162231,470.951569 
	C280.000336,470.968109 269.838226,470.956146 259.676697,471.024780 
	C257.971954,471.036285 256.269531,471.393585 254.566055,471.591125 
	C255.518005,473.015717 256.529358,473.644135 257.533325,473.632599 
	C269.339294,473.496948 281.147644,472.996521 292.948029,473.151337 
	C301.129395,473.258667 307.454529,470.414307 312.098145,463.642975 
	C315.193085,467.534393 316.950714,464.207214 318.979279,462.522247 
	C326.143677,456.571259 333.306366,450.668457 343.323395,456.787445 
	C343.525909,456.911163 343.949280,456.673340 344.816162,456.486267 
	C344.682556,455.321106 344.715515,454.043549 344.371429,452.877319 
	C342.820648,447.621582 341.233307,442.374298 339.524689,437.168091 
	C337.711304,431.642639 336.001373,426.060669 333.769470,420.701965 
	C331.861511,416.121033 329.499817,416.070435 326.823975,420.284180 
	C325.319885,422.652710 323.966858,425.172211 322.940552,427.779114 
	C319.471191,436.591766 316.178192,445.473877 312.489655,455.035950 
z"/>
<path fill="#037CA4" opacity="1.000000" stroke="none" 
	d="
M738.971313,536.021606 
	C737.950195,531.729797 737.059448,527.401733 735.877808,523.154602 
	C734.060547,516.623352 734.522644,510.796448 740.993286,506.150208 
	C743.737366,505.453186 746.219543,505.480225 747.790161,504.297211 
	C753.919128,499.680542 759.535767,494.367340 765.771667,489.913574 
	C771.718384,485.666321 778.199036,482.166504 784.444946,478.338074 
	C778.228577,484.026611 772.035339,489.740723 765.788147,495.395203 
	C761.096985,499.641327 756.306396,503.777527 751.615051,508.023468 
	C746.688599,512.482178 744.617493,517.365662 746.769165,524.419312 
	C750.544495,536.796143 753.276184,549.490295 756.485901,562.041138 
	C757.649841,566.592102 757.138000,570.884644 753.352722,573.827637 
	C749.481873,576.837158 744.953613,577.809509 740.306763,575.168457 
	C729.492981,569.022461 718.535522,563.107910 707.949097,556.591309 
	C701.842712,552.832397 696.517517,552.848450 690.449951,556.508789 
	C680.078735,562.765320 669.399902,568.510132 658.909912,574.572998 
	C654.164062,577.315918 649.589966,579.875366 644.227478,575.870117 
	C638.483276,571.579773 639.190369,565.572144 640.441223,559.961060 
	C643.427002,546.567200 646.904297,533.278687 650.409485,520.007385 
	C651.479553,515.955872 650.567749,512.765137 647.633118,510.106567 
	C642.722473,505.657806 637.687012,501.346771 632.703247,496.651489 
	C634.891235,496.854431 637.373230,496.895721 639.214905,498.002533 
	C645.269287,501.641083 651.197754,505.518463 656.929321,509.644714 
	C658.390808,510.696869 659.853394,513.061768 659.755798,514.732361 
	C659.381348,521.142456 658.382751,527.516785 657.592346,533.901428 
	C657.432739,535.190796 657.165588,536.466736 656.815918,538.527222 
	C661.065491,533.664856 666.511719,534.201294 671.338623,532.991150 
	C679.664917,530.903503 688.028137,528.963135 697.149292,526.972046 
	C702.809082,528.559814 707.792236,529.891602 712.557800,531.774048 
	C718.731689,534.212891 724.823669,536.905396 730.775513,539.843872 
	C734.806946,541.834167 738.536438,544.435852 742.000488,546.522827 
	C741.559265,545.158020 740.723572,542.572998 739.898560,539.628540 
	C739.597168,538.183167 739.284973,537.097107 738.981750,536.007812 
	C738.990723,536.004517 738.971313,536.021606 738.971313,536.021606 
M656.281067,542.177368 
	C656.443604,542.121521 656.606201,542.065613 656.768738,542.009766 
	C656.606323,541.954834 656.443848,541.899841 656.281067,542.177368 
z"/>
<path fill="#0BC5B1" opacity="1.000000" stroke="none" 
	d="
M810.736389,491.190063 
	C812.000000,488.080902 813.239502,489.006348 815.492004,490.640289 
	C822.314697,495.589142 829.471069,500.076599 836.476074,504.775757 
	C839.773926,506.988098 845.577271,506.384277 846.255005,511.288300 
	C846.913147,516.050781 845.930176,521.064392 845.452332,525.946594 
	C845.282898,527.678345 844.479187,529.348083 843.879700,531.328125 
	C850.764160,533.188171 856.318665,530.409363 862.052490,528.501343 
	C870.194153,525.792236 878.260925,522.607727 886.618958,520.881287 
	C892.961487,519.571228 899.770142,520.692505 906.256165,519.847534 
	C911.595215,519.151978 916.909302,517.522583 921.929688,515.536621 
	C923.635742,514.861694 924.092834,511.514343 925.674561,509.947357 
	C930.030945,505.631775 934.551941,501.455444 939.291931,497.570770 
	C940.711304,496.407562 943.115723,496.516418 944.979553,495.807617 
	C947.260437,494.940155 949.416809,493.749420 951.683350,492.838623 
	C954.204773,491.825348 956.789551,490.969757 959.758057,490.082031 
	C956.316223,493.710266 952.463135,497.302002 948.195496,500.835602 
	C947.651245,500.747375 947.521545,500.717255 947.391846,500.687134 
	C947.461487,500.936371 947.531067,501.185547 947.600708,501.434723 
	C947.600708,501.434723 947.425232,501.466492 947.048706,501.396973 
	C946.163025,501.959259 945.653870,502.591095 945.144714,503.222931 
	C945.144714,503.222931 945.212463,503.160553 944.863159,503.145386 
	C943.828308,503.892242 943.142700,504.654236 942.457092,505.416199 
	C942.457092,505.416199 942.241882,505.392975 941.965881,505.349213 
	C941.536560,505.627380 941.383240,505.949310 941.229919,506.271210 
	C941.229919,506.271210 941.372192,506.396881 941.007324,506.319641 
	C939.222229,507.615601 937.801941,508.988739 936.381714,510.361908 
	C936.381714,510.361908 936.236023,510.339020 935.961548,510.315552 
	C935.527039,510.617310 935.366943,510.942566 935.206787,511.267822 
	C935.206787,511.267822 935.141052,511.175537 934.915588,511.230591 
	C934.523926,511.606506 934.357727,511.927338 934.191589,512.248169 
	C934.191589,512.248169 934.179626,512.114502 933.848389,512.230347 
	C929.717896,515.877808 930.622131,520.198914 931.756958,524.373657 
	C932.504089,527.122314 932.975342,529.058960 929.929565,531.046692 
	C928.453735,532.009888 927.594543,535.220825 927.836792,537.249268 
	C928.382751,541.821167 929.954224,546.259583 930.801208,550.809448 
	C931.763428,555.978210 932.390747,561.209229 933.352295,567.683716 
	C918.747681,559.675232 905.629456,552.564636 892.598450,545.297668 
	C886.972717,542.160400 881.626709,542.256775 876.110046,545.504883 
	C868.158325,550.186707 860.162964,554.799744 852.090881,559.269958 
	C846.844910,562.175171 841.429382,564.773926 834.762817,568.190002 
	C836.076050,560.931030 837.062317,555.479126 838.278198,549.848877 
	C838.588562,549.055725 838.669373,548.440918 838.750244,547.826111 
	C838.541382,547.803406 838.332520,547.780762 838.123718,547.758057 
	C838.054626,548.479553 837.985535,549.201111 837.535278,549.915405 
	C836.148804,548.781433 834.288879,547.657349 834.285461,546.527649 
	C834.270142,541.500305 834.734924,536.467346 835.128906,531.444458 
	C835.375916,528.295166 835.805420,525.160095 836.153015,522.018677 
	C836.967041,515.562317 834.316406,510.891144 829.089172,507.182007 
	C825.579834,504.691986 822.494324,501.604645 819.041382,498.153442 
	C817.796509,496.822693 816.729309,496.123108 815.662170,495.423492 
	C815.662170,495.423492 815.650330,495.339813 815.628906,495.005188 
	C814.670959,494.146820 813.734436,493.623108 812.797852,493.099396 
	C812.487549,493.061218 812.240906,492.915405 811.891357,492.193481 
	C811.415344,491.543213 811.105957,491.361359 810.796509,491.179504 
	C810.796509,491.179504 810.756958,491.189697 810.736389,491.190063 
z"/>
<path fill="#037CA4" opacity="1.000000" stroke="none" 
	d="
M836.057556,522.391968 
	C835.805420,525.160095 835.375916,528.295166 835.128906,531.444458 
	C834.734924,536.467346 834.270142,541.500305 834.285461,546.527649 
	C834.288879,547.657349 836.148804,548.781433 837.567200,549.942932 
	C837.980347,549.977783 838.048645,550.027222 838.048645,550.027222 
	C837.062317,555.479126 836.076050,560.931030 834.762817,568.190002 
	C841.429382,564.773926 846.844910,562.175171 852.090881,559.269958 
	C860.162964,554.799744 868.158325,550.186707 876.110046,545.504883 
	C881.626709,542.256775 886.972717,542.160400 892.598450,545.297668 
	C905.629456,552.564636 918.747681,559.675232 933.352295,567.683716 
	C932.390747,561.209229 931.763428,555.978210 930.801208,550.809448 
	C929.954224,546.259583 928.382751,541.821167 927.836792,537.249268 
	C927.594543,535.220825 928.453735,532.009888 929.929565,531.046692 
	C932.975342,529.058960 932.504089,527.122314 931.756958,524.373657 
	C930.622131,520.198914 929.717896,515.877808 933.892090,512.281250 
	C931.302551,516.858643 932.260376,521.476685 933.822021,526.389465 
	C936.878235,536.003906 939.773987,545.691528 942.142639,555.492310 
	C943.242493,560.043030 943.467773,564.962585 943.166321,569.655640 
	C942.768372,575.852112 933.025574,579.578918 925.521912,575.931335 
	C916.766296,571.675049 908.300415,566.745483 900.019226,561.607727 
	C885.239868,552.438416 888.128967,550.654724 871.126160,561.040039 
	C862.504456,566.306213 853.566223,571.066223 844.668213,575.864258 
	C837.580139,579.686401 832.403381,578.923218 827.408447,574.107544 
	C823.708801,570.540833 823.176697,566.388245 824.517273,561.776306 
	C828.299866,548.763245 832.142883,535.767700 836.057556,522.391968 
z"/>
<path fill="#0BC5B1" opacity="1.000000" stroke="none" 
	d="
M784.432129,478.311340 
	C778.199036,482.166504 771.718384,485.666321 765.771667,489.913574 
	C759.535767,494.367340 753.919128,499.680542 747.790161,504.297211 
	C746.219543,505.480225 743.737366,505.453186 741.268555,505.955200 
	C739.143616,504.659149 736.554993,503.739655 735.876099,502.051880 
	C734.187317,497.853699 732.668701,493.320129 732.575867,488.889923 
	C732.542908,487.314270 736.628784,484.724182 739.167114,484.196198 
	C746.879700,482.591949 754.745605,481.697327 762.574890,480.708160 
	C763.957336,480.533508 765.450500,481.234283 767.727051,481.702454 
	C769.642883,480.197021 772.481445,478.175049 775.040283,475.845825 
	C775.969543,475.000000 776.231140,473.420624 776.797363,472.175964 
	C775.633423,471.766449 774.481506,471.041779 773.303589,470.996582 
	C762.522522,470.583252 751.725708,469.866058 740.957703,470.151001 
	C736.163391,470.277863 733.447144,468.074524 731.002441,464.992249 
	C728.417969,461.733795 726.348755,458.066742 724.109375,454.195557 
	C728.077148,459.586823 733.484924,461.277100 740.392761,461.139862 
	C751.819092,460.912872 763.297974,461.255951 774.681824,462.219604 
	C778.168640,462.514801 781.416931,465.627228 784.558105,468.034607 
	C784.361206,471.822571 784.380737,475.025421 784.400269,478.228302 
	C784.400208,478.228302 784.419250,478.284576 784.432129,478.311340 
M759.557617,488.212097 
	C759.274536,488.410278 759.091797,488.677185 758.728210,489.103333 
	C758.814819,489.066101 758.901428,489.028870 759.426392,488.774841 
	C759.700256,488.575958 759.887878,488.315033 760.267700,487.882538 
	C760.181396,487.925507 760.095154,487.968506 759.557617,488.212097 
M755.409546,491.482605 
	C755.409546,491.482605 755.525818,491.412750 755.409546,491.482605 
M762.483154,485.599762 
	C762.483154,485.599762 762.403564,485.473480 762.483154,485.599762 
z"/>
<path fill="#FF8331" opacity="1.000000" stroke="none" 
	d="
M107.405930,461.559204 
	C105.666283,462.273010 103.511871,463.731781 101.292641,463.838135 
	C89.395813,464.408356 77.481697,464.608612 65.576599,465.023926 
	C63.609657,465.092560 61.657787,465.593201 59.267738,465.830505 
	C61.517975,464.990021 64.168472,463.685059 66.886124,463.525787 
	C80.234703,462.743408 93.601128,462.265472 107.405930,461.559204 
z"/>
<path fill="#FF8331" opacity="1.000000" stroke="none" 
	d="
M57.385155,466.839905 
	C57.812595,471.287384 57.890732,475.768463 57.914673,480.700104 
	C53.192215,476.344757 52.990829,472.858093 57.385155,466.839905 
z"/>
<path fill="#037CA4" opacity="1.000000" stroke="none" 
	d="
M568.659180,574.986145 
	C569.634399,570.691345 570.881042,566.228271 572.246948,561.363403 
	C574.299316,566.343628 572.906799,570.901001 568.659180,574.986145 
z"/>
<path fill="#037CA4" opacity="1.000000" stroke="none" 
	d="
M557.645508,576.314209 
	C560.698242,575.790344 564.005981,575.441223 567.727539,575.172119 
	C564.727722,575.664368 561.314148,576.076599 557.645508,576.314209 
z"/>
<path fill="#037CA4" opacity="1.000000" stroke="none" 
	d="
M784.734192,478.067505 
	C784.380737,475.025421 784.361206,471.822571 784.598511,468.380371 
	C784.926208,471.396301 784.997131,474.651489 784.734192,478.067505 
z"/>
<path fill="#FF8331" opacity="1.000000" stroke="none" 
	d="
M155.195923,420.559479 
	C153.787048,418.185822 152.447052,415.432587 151.129517,412.303589 
	C152.522903,414.678497 153.893860,417.429230 155.195923,420.559479 
z"/>
<path fill="#037CA4" opacity="1.000000" stroke="none" 
	d="
M936.704468,510.340149 
	C937.801941,508.988739 939.222229,507.615601 940.976746,506.409485 
	C939.883118,507.823853 938.455139,509.071136 936.704468,510.340149 
z"/>
<path fill="#037CA4" opacity="1.000000" stroke="none" 
	d="
M626.009705,491.244019 
	C626.926758,491.449799 627.946411,491.969482 628.937134,492.827911 
	C627.976257,492.630402 627.044312,492.094147 626.009705,491.244019 
z"/>
<path fill="#25DC9E" opacity="1.000000" stroke="none" 
	d="
M815.792175,495.701294 
	C816.729309,496.123108 817.796509,496.822693 818.874817,497.868652 
	C817.898071,497.469666 816.910095,496.724396 815.792175,495.701294 
z"/>
<path fill="#037CA4" opacity="1.000000" stroke="none" 
	d="
M942.756226,505.419586 
	C943.142700,504.654236 943.828308,503.892242 944.867676,503.191223 
	C944.499451,503.975800 943.777405,504.699371 942.756226,505.419586 
z"/>
<path fill="#0BC5B1" opacity="1.000000" stroke="none" 
	d="
M724.176147,453.523804 
	C723.631653,453.033905 723.034119,452.232697 722.690735,451.219330 
	C723.337585,451.742279 723.730347,452.477386 724.176147,453.523804 
z"/>
<path fill="#25DC9E" opacity="1.000000" stroke="none" 
	d="
M812.950073,493.370239 
	C813.734436,493.623108 814.670959,494.146820 815.592407,495.026489 
	C814.752319,494.801941 813.927246,494.221497 812.950073,493.370239 
z"/>
<path fill="#25DC9E" opacity="1.000000" stroke="none" 
	d="
M805.407837,486.417908 
	C804.593140,486.005432 804.003723,485.466400 803.506897,484.580200 
	C803.744385,484.144012 803.889282,484.054962 804.291382,484.098999 
	C805.043884,484.809937 805.539124,485.387817 806.034424,485.965698 
	C805.900635,486.074249 805.766846,486.182770 805.407837,486.417908 
z"/>
<path fill="#FF8331" opacity="1.000000" stroke="none" 
	d="
M57.962585,481.406433 
	C58.529312,481.577820 59.220234,482.016663 59.893368,482.808685 
	C59.279312,482.665863 58.683044,482.169861 57.962585,481.406433 
z"/>
<path fill="#037CA4" opacity="1.000000" stroke="none" 
	d="
M945.456787,503.168457 
	C945.653870,502.591095 946.163025,501.959259 946.996216,501.324951 
	C946.803101,501.919617 946.285950,502.516815 945.456787,503.168457 
z"/>
<path fill="#FF5974" opacity="1.000000" stroke="none" 
	d="
M278.661255,512.815063 
	C278.996124,512.889343 279.432678,513.203125 279.861877,513.838684 
	C279.490662,513.791809 279.126831,513.423218 278.661255,512.815063 
z"/>
<path fill="#037CA4" opacity="1.000000" stroke="none" 
	d="
M630.006165,494.409912 
	C630.473267,494.265564 631.089294,494.440369 631.805359,494.941711 
	C631.321960,495.088501 630.738525,494.908752 630.006165,494.409912 
z"/>
<path fill="#037CA4" opacity="1.000000" stroke="none" 
	d="
M934.517334,512.281860 
	C934.357727,511.927338 934.523926,511.606506 934.972046,511.235413 
	C935.117065,511.561981 934.980103,511.938782 934.517334,512.281860 
z"/>
<path fill="#FF5974" opacity="1.000000" stroke="none" 
	d="
M277.716797,511.824829 
	C277.937469,511.728638 278.226837,511.793823 278.437744,512.111633 
	C278.117462,512.315002 277.926208,512.188965 277.716797,511.824829 
z"/>
<path fill="#037CA4" opacity="1.000000" stroke="none" 
	d="
M935.536377,511.277649 
	C935.366943,510.942566 935.527039,510.617310 935.970764,510.242371 
	C936.124939,510.557617 935.995422,510.922546 935.536377,511.277649 
z"/>
<path fill="#FF5974" opacity="1.000000" stroke="none" 
	d="
M277.020569,511.198364 
	C277.160156,511.090027 277.355316,511.087646 277.426056,511.234802 
	C277.301605,511.384399 277.076141,511.304291 277.020569,511.198364 
z"/>
<path fill="#FF8331" opacity="1.000000" stroke="none" 
	d="
M151.018845,411.589905 
	C150.825623,411.600769 150.542755,411.320312 150.177216,410.738708 
	C150.372757,410.724548 150.650986,411.011566 151.018845,411.589905 
z"/>
<path fill="#037CA4" opacity="1.000000" stroke="none" 
	d="
M941.568115,506.290710 
	C941.383240,505.949310 941.536560,505.627380 941.965454,505.241028 
	C942.129395,505.554443 942.017883,505.932312 941.568115,506.290710 
z"/>
<path fill="#037CA4" opacity="1.000000" stroke="none" 
	d="
M947.728638,501.405518 
	C947.531067,501.185547 947.461487,500.936371 947.391846,500.687134 
	C947.521545,500.717255 947.651245,500.747375 947.874268,500.957947 
	C947.967651,501.138397 947.856689,501.376343 947.728638,501.405518 
z"/>
<path fill="#FF8331" opacity="1.000000" stroke="none" 
	d="
M411.838043,466.667419 
	C411.721863,466.810028 411.535736,466.874817 411.455505,466.747742 
	C411.561432,466.555878 411.768066,466.589600 411.838043,466.667419 
z"/>
<path fill="#037CA4" opacity="1.000000" stroke="none" 
	d="
M631.757141,495.435638 
	C632.172363,495.240906 632.477051,495.420135 632.864075,495.860046 
	C632.513184,496.017029 632.079834,495.913300 631.757141,495.435638 
z"/>
<path fill="#037CA4" opacity="1.000000" stroke="none" 
	d="
M628.947449,493.308838 
	C629.201660,493.214294 629.505859,493.403473 629.888733,493.858551 
	C629.644104,493.947144 629.320740,493.769836 628.947449,493.308838 
z"/>
<path fill="#25DC9E" opacity="1.000000" stroke="none" 
	d="
M810.883179,491.438141 
	C811.105957,491.361359 811.415344,491.543213 811.807495,491.990112 
	C811.583435,492.069061 811.276672,491.882935 810.883179,491.438141 
z"/>
<path fill="#FF8331" opacity="1.000000" stroke="none" 
	d="
M58.568901,465.830322 
	C58.732880,466.160370 58.553230,466.447327 58.132484,466.831329 
	C58.002682,466.548004 58.113979,466.167633 58.568901,465.830322 
z"/>
<path fill="#25DC9E" opacity="1.000000" stroke="none" 
	d="
M803.357605,484.314087 
	C803.115723,484.395111 802.729248,484.099548 802.668457,483.994690 
	C802.665100,483.726044 802.722595,483.562286 803.124390,483.303375 
	C803.723694,483.411224 803.912170,483.663788 804.034180,483.965942 
	C803.889282,484.054962 803.744385,484.144012 803.357605,484.314087 
z"/>
<path fill="#FFFBF4" opacity="1.000000" stroke="none" 
	d="
M492.034058,465.026123 
	C497.775482,450.710938 503.453156,436.369446 509.331970,422.110870 
	C510.146423,420.135406 511.954315,418.569519 513.868164,416.077057 
	C510.847351,423.214355 508.267914,428.967468 505.966827,434.829834 
	C502.932495,442.560486 500.252472,450.432068 497.129517,458.125092 
	C496.106049,460.646301 494.176270,462.799561 492.327789,465.057129 
	C491.994629,464.993164 492.034058,465.026123 492.034058,465.026123 
z"/>
<path fill="#FFFBF4" opacity="1.000000" stroke="none" 
	d="
M489.957214,466.958801 
	C487.992554,468.389099 486.131927,470.870422 484.046112,471.076935 
	C471.662842,472.303070 459.227844,473.007812 446.807770,473.851929 
	C446.443024,473.876740 446.051331,473.504456 444.492096,472.734863 
	C451.342255,472.179474 456.986267,471.691986 462.635284,471.272308 
	C468.264008,470.854126 473.933624,470.771271 479.515869,470.023315 
	C482.846069,469.577148 486.042725,468.134064 489.646545,467.067078 
	C489.993683,466.995056 489.957214,466.958801 489.957214,466.958801 
z"/>
<path fill="#FFFBF4" opacity="1.000000" stroke="none" 
	d="
M491.035217,466.026550 
	C491.196869,465.730103 491.358521,465.433655 491.777100,465.081665 
	C492.034058,465.026123 491.994629,464.993164 491.975952,464.974976 
	C491.831207,465.312500 491.705170,465.668213 491.286804,466.008484 
	C490.994507,465.993011 491.035217,466.026550 491.035217,466.026550 
z"/>
<path fill="#FFFBF4" opacity="1.000000" stroke="none" 
	d="
M490.975647,465.974609 
	C490.828918,466.302856 490.701080,466.649506 490.265198,466.977478 
	C489.957214,466.958801 489.993683,466.995056 490.010376,467.014771 
	C490.189301,466.737122 490.351532,466.439758 490.774475,466.084473 
	C491.035217,466.026550 490.994507,465.993011 490.975647,465.974609 
z"/>
<path fill="#FFFBF4" opacity="1.000000" stroke="none" 
	d="
M815.652527,471.982422 
	C827.516052,471.496887 838.986938,470.997711 850.461243,470.594727 
	C860.001770,470.259644 865.892212,465.159698 868.880066,456.453644 
	C872.706299,445.304688 876.317444,434.082062 880.072693,422.908508 
	C880.651794,421.185516 881.221436,419.323578 882.329468,417.959656 
	C883.130554,416.973511 884.815918,416.705658 886.464661,415.954407 
	C884.571777,418.946777 882.857056,420.815491 882.087158,423.015015 
	C877.969604,434.778473 874.198364,446.663086 870.089478,458.429749 
	C866.867493,467.656860 859.811401,472.128418 850.369995,472.628387 
	C839.241028,473.217743 828.086792,473.346466 816.941589,473.583191 
	C816.157654,473.599884 815.357727,472.860077 814.565247,472.471985 
	C814.638794,472.369171 814.691528,472.231995 814.790894,472.171783 
	C814.929443,472.087830 815.102905,472.061432 815.652527,471.982422 
z"/>
<path fill="#0BC5B1" opacity="1.000000" stroke="none" 
	d="
M804.291382,484.098999 
	C803.912170,483.663788 803.723694,483.411224 803.265442,483.084534 
	C803.803467,482.603638 805.071289,481.801697 805.203979,481.958740 
	C806.379578,483.350159 807.354004,484.911591 808.387878,486.422791 
	C807.787048,486.357574 807.186218,486.292389 806.309937,486.096436 
	C805.539124,485.387817 805.043884,484.809937 804.291382,484.098999 
z"/>
<path fill="#0BC5B1" opacity="1.000000" stroke="none" 
	d="
M739.887817,539.987976 
	C740.723572,542.572998 741.559265,545.158020 742.000488,546.522827 
	C738.536438,544.435852 734.806946,541.834167 730.775513,539.843872 
	C724.823669,536.905396 718.731689,534.212891 712.557800,531.774048 
	C707.792236,529.891602 702.809082,528.559814 697.552612,526.922485 
	C699.052551,525.324890 700.758850,522.749390 702.819641,522.424866 
	C713.707825,520.709900 724.219788,523.294983 734.210449,527.252380 
	C736.369629,528.107727 737.049500,532.697693 738.691040,535.794556 
	C738.971313,536.021606 738.990723,536.004517 738.991577,536.367004 
	C739.290894,537.815674 739.589355,538.901794 739.887817,539.987976 
z"/>
<path fill="#FFFBF4" opacity="1.000000" stroke="none" 
	d="
M634.169434,473.668030 
	C631.553101,473.681854 629.401917,473.681854 627.250671,473.681854 
	C627.211426,473.440918 627.172119,473.199982 627.132874,472.959045 
	C628.644287,472.731598 630.150391,472.354248 631.668030,472.300781 
	C642.151917,471.931396 652.636658,471.555634 663.124207,471.326538 
	C673.907898,471.091003 677.851074,468.409912 681.521545,458.038239 
	C685.457275,446.916779 689.202454,435.728027 693.087158,424.588257 
	C693.740356,422.715149 694.406677,420.736328 695.573486,419.188141 
	C696.477051,417.989258 698.171814,417.386566 699.587708,416.471741 
	C697.765198,419.612427 695.785583,422.125916 694.741455,424.981506 
	C690.627991,436.231140 686.906494,447.623566 682.851624,458.895355 
	C679.078003,469.385254 674.518616,472.488373 663.591736,472.751068 
	C653.937683,472.983093 644.286865,473.347961 634.169434,473.668030 
z"/>
<path fill="#FFFBF4" opacity="1.000000" stroke="none" 
	d="
M68.244934,472.797272 
	C80.767967,472.256195 92.902290,471.653137 105.044090,471.361267 
	C114.742058,471.128113 120.885094,466.373993 124.267342,457.500366 
	C129.177444,444.618134 134.148804,431.758881 139.191055,418.927979 
	C139.510864,418.114227 140.667145,417.629150 142.190338,417.871399 
	C137.401901,429.931763 132.751999,442.049957 127.754280,454.022980 
	C125.854431,458.574463 123.682976,463.201416 120.690811,467.061920 
	C116.639870,472.288422 110.246422,473.354919 104.019257,473.639709 
	C92.552582,474.164093 81.070930,474.376038 69.593254,474.604218 
	C68.965942,474.616730 65.822136,475.984100 68.244934,472.797272 
z"/>
<path fill="#FFC53C" opacity="1.000000" stroke="none" 
	d="
M312.653748,454.682678 
	C316.178192,445.473877 319.471191,436.591766 322.940552,427.779114 
	C323.966858,425.172211 325.319885,422.652710 326.823975,420.284180 
	C329.499817,416.070435 331.861511,416.121033 333.769470,420.701965 
	C336.001373,426.060669 337.711304,431.642639 339.524689,437.168091 
	C341.233307,442.374298 342.820648,447.621582 344.371429,452.877319 
	C344.715515,454.043549 344.682556,455.321106 344.816162,456.486267 
	C343.949280,456.673340 343.525909,456.911163 343.323395,456.787445 
	C333.306366,450.668457 326.143677,456.571259 318.979279,462.522247 
	C316.950714,464.207214 315.193085,467.534393 312.098145,463.642975 
	C307.454529,470.414307 301.129395,473.258667 292.948029,473.151337 
	C281.147644,472.996521 269.339294,473.496948 257.533325,473.632599 
	C256.529358,473.644135 255.518005,473.015717 254.566055,471.591125 
	C256.269531,471.393585 257.971954,471.036285 259.676697,471.024780 
	C269.838226,470.956146 280.000336,470.968109 290.162231,470.951569 
	C303.934326,470.929199 308.173004,467.907135 312.653748,454.682678 
M313.527740,461.402557 
	C313.527740,461.402557 313.595703,461.519958 313.527740,461.402557 
z"/>
<path fill="#09C8EE" opacity="1.000000" stroke="none" 
	d="
M739.898621,539.628540 
	C739.589355,538.901794 739.290894,537.815674 738.982544,536.370300 
	C739.284973,537.097107 739.597168,538.183167 739.898621,539.628540 
z"/>
<path fill="#09C8EE" opacity="1.000000" stroke="none" 
	d="
M656.281250,542.011108 
	C656.443848,541.899841 656.606323,541.954834 656.768738,542.009766 
	C656.606201,542.065613 656.443604,542.121521 656.281250,542.011108 
z"/>
<path fill="#037CA4" opacity="1.000000" stroke="none" 
	d="
M837.948425,549.950195 
	C837.985535,549.201111 838.054626,548.479553 838.123718,547.758057 
	C838.332520,547.780762 838.541382,547.803406 838.750244,547.826111 
	C838.669373,548.440918 838.588562,549.055725 838.278198,549.848877 
	C838.048645,550.027222 837.980347,549.977783 837.948425,549.950195 
z"/>
<path fill="#09C8EE" opacity="1.000000" stroke="none" 
	d="
M755.467651,491.447693 
	C755.525818,491.412750 755.409546,491.482605 755.467651,491.447693 
z"/>
<path fill="#09C8EE" opacity="1.000000" stroke="none" 
	d="
M758.988037,488.991577 
	C758.901428,489.028870 758.814819,489.066101 758.864136,489.051941 
	C759.000000,489.000519 758.988037,488.991577 758.988037,488.991577 
z"/>
<path fill="#09C8EE" opacity="1.000000" stroke="none" 
	d="
M759.004761,489.006683 
	C759.091797,488.677185 759.274536,488.410278 759.778809,488.106232 
	C760.000000,488.000366 759.989258,487.992096 759.989258,487.992096 
	C759.887878,488.315033 759.700256,488.575958 759.207214,488.883209 
	C758.988037,488.991577 759.000000,489.000519 759.004761,489.006683 
z"/>
<path fill="#09C8EE" opacity="1.000000" stroke="none" 
	d="
M760.004395,488.005920 
	C760.095154,487.968506 760.181396,487.925507 760.128479,487.937317 
	C759.989258,487.992096 760.000000,488.000366 760.004395,488.005920 
z"/>
<path fill="#09C8EE" opacity="1.000000" stroke="none" 
	d="
M762.443359,485.536621 
	C762.403564,485.473480 762.483154,485.599762 762.443359,485.536621 
z"/>
<path fill="#FF8331" opacity="1.000000" stroke="none" 
	d="
M313.561707,461.461243 
	C313.595703,461.519958 313.527740,461.402557 313.561707,461.461243 
z"/>
</svg>