<?xml version="1.0" encoding="UTF-8"?>
<svg version="1.1" xmlns="http://www.w3.org/2000/svg" width="1024" height="1024">
<path d="M0 0 C337.92 0 675.84 0 1024 0 C1024 337.92 1024 675.84 1024 1024 C686.08 1024 348.16 1024 0 1024 C0 686.08 0 348.16 0 0 Z " fill="#F9F5EF" transform="translate(0,0)"/>
<path d="M0 0 C4.53569384 3.62343963 8.78086062 7.56960932 13.02734375 11.5234375 C15.13402022 13.58234928 15.13402022 13.58234928 17.3125 14.5625 C17.3125 15.2225 17.3125 15.8825 17.3125 16.5625 C18.3025 16.8925 19.2925 17.2225 20.3125 17.5625 C21.890625 19.12890625 21.890625 19.12890625 23.5625 21.125 C24.16707031 21.83785156 24.77164062 22.55070312 25.39453125 23.28515625 C26.34392578 24.41244141 26.34392578 24.41244141 27.3125 25.5625 C28.62193715 27.06517448 29.93429103 28.56531393 31.25 30.0625 C32.27083333 31.22916667 33.29166667 32.39583333 34.3125 33.5625 C37.69840789 30.91984019 40.6550232 28.27470857 43.4375 25 C66.86462844 -2.19584041 97.59556294 -20.64654738 132.3125 -29.4375 C132.98716309 -29.61539063 133.66182617 -29.79328125 134.35693359 -29.9765625 C153.9867817 -34.96695011 176.73461484 -34.29548428 196.3125 -29.4375 C197.57449219 -29.14746094 198.83648438 -28.85742188 200.13671875 -28.55859375 C223.04198596 -22.93232565 241.72612846 -11.92584827 259.3125 3.5625 C260.16328125 4.31015625 261.0140625 5.0578125 261.890625 5.828125 C286.24410935 28.77996996 301.10817409 63.43314097 302.43725586 96.68359375 C302.78413789 111.88156537 302.72496659 126.70405171 299.3125 141.5625 C299.11914062 142.41827637 298.92578125 143.27405273 298.7265625 144.15576172 C287.68670914 191.526614 258.16783638 229.65689725 224.5 263.5 C223.88995117 264.11472168 223.27990234 264.72944336 222.65136719 265.36279297 C222.0587207 265.95334473 221.46607422 266.54389648 220.85546875 267.15234375 C220.34008545 267.66659912 219.82470215 268.18085449 219.29370117 268.71069336 C216.38620198 271.42830043 213.3476994 273.98921957 210.3125 276.5625 C211.12523376 276.56836624 211.93796753 276.57423248 212.77532959 276.58027649 C220.48305088 276.63849099 228.19045946 276.71072869 235.89789963 276.79821491 C239.85915797 276.8426976 243.82031868 276.8820004 247.78173828 276.90893555 C251.61395787 276.93519166 255.44579715 276.97574587 259.27777863 277.02568626 C260.73034131 277.04220584 262.18296954 277.05381194 263.63561249 277.06011391 C283.65927899 277.15566144 299.22443589 282.79254284 313.6875 296.875 C326.04032756 309.89554797 333.42568135 326.60653295 333.44392776 344.64918518 C333.44700672 345.68909551 333.44700672 345.68909551 333.45014787 346.75001413 C333.45580092 349.07237441 333.45436271 351.39467508 333.45294189 353.71704102 C333.45552651 355.39928569 333.45853994 357.08152975 333.4619453 358.76377296 C333.47000737 363.38643504 333.47180443 368.00908159 333.47254276 372.63174987 C333.47439473 377.61764806 333.48194285 382.60353822 333.48867798 387.58943176 C333.50225681 398.49256022 333.50828549 409.39568499 333.51268864 420.2988205 C333.51545216 427.10890277 333.51968975 433.91898363 333.52419281 440.72906494 C333.53638553 459.58965974 333.54668442 478.4502534 333.5500679 497.31085205 C333.55028747 498.51787246 333.55050703 499.72489286 333.55073325 500.96848965 C333.55095153 502.17837834 333.55116981 503.38826704 333.5513947 504.63481903 C333.55183816 507.08646139 333.55228473 509.53810374 333.55273438 511.98974609 C333.5529558 513.20584218 333.55317723 514.42193827 333.55340537 515.67488575 C333.55735181 535.37180287 333.57480113 555.06868296 333.5980939 574.76558578 C333.62182333 594.9953268 333.6342705 615.22504926 333.63543582 635.45480442 C333.63635175 646.81006957 333.64208338 658.16528649 333.66025543 669.52053833 C333.67567797 679.19171145 333.68076421 688.86282143 333.67251733 698.53400451 C333.6686183 703.46532706 333.66950386 708.39652255 333.68357468 713.32782936 C333.69635849 717.84959658 333.69507694 722.37114183 333.68298396 726.89290893 C333.68103469 728.521503 333.6840695 730.15011305 333.69282833 731.77868474 C333.81229011 755.50911194 326.97210879 775.42912333 310.265625 792.703125 C294.39231318 808.44995625 275.21828888 815.04791064 253.28215981 815.09747362 C251.53234296 815.0888298 249.78252796 815.07980337 248.03271484 815.07043457 C246.13289603 815.07505333 244.23308081 815.08141274 242.33327293 815.08934355 C237.15548942 815.10592609 231.97800364 815.09784125 226.80021954 815.08539867 C221.1995773 815.07630485 215.59898433 815.09033931 209.99835205 815.10131836 C199.04358917 815.11906208 188.0889362 815.11528209 177.1341691 815.1036678 C168.22735604 815.0946174 159.32057367 815.09341642 150.41375732 815.09776306 C148.50893918 815.09868246 148.50893918 815.09868246 146.56563985 815.09962043 C143.98553609 815.10089939 141.40543233 815.10219625 138.82532859 815.1035108 C115.34602589 815.11457995 91.86679681 815.10312009 68.38750729 815.08214041 C46.98291555 815.06315993 25.57841903 815.06485852 4.17382812 815.08398438 C-19.91001527 815.10543265 -43.99379374 815.11380593 -68.07765007 815.10153532 C-70.64801915 815.10026119 -73.21838823 815.0990037 -75.78875732 815.09776306 C-77.05327685 815.09714596 -78.31779638 815.09652886 -79.62063468 815.09589306 C-88.51201575 815.092446 -97.40336294 815.0982546 -106.29473877 815.10768127 C-117.13713319 815.11892425 -127.97941184 815.11581288 -138.82179308 815.0945583 C-144.34887847 815.08407888 -149.87577115 815.07987294 -155.40285492 815.09315491 C-160.47087963 815.10514912 -165.53853456 815.09840119 -170.60652614 815.0772447 C-172.43135045 815.07280827 -174.25620656 815.07497754 -176.0810101 815.08474785 C-190.28714746 815.15492391 -204.09810089 813.77724452 -216.875 806.9375 C-217.52734619 806.59831543 -218.17969238 806.25913086 -218.85180664 805.90966797 C-238.77686645 795.17538426 -252.76233313 778.15438209 -259.6875 756.5625 C-263.00891124 745.04705772 -262.8368404 733.16523567 -262.83467102 721.28207397 C-262.83797536 719.63492549 -262.84170212 717.9877778 -262.8458125 716.34063113 C-262.85577517 711.83348368 -262.85953996 707.32634954 -262.86220181 702.81919265 C-262.86612178 697.95057221 -262.8756986 693.08196215 -262.88441467 688.21334839 C-262.90412744 676.46799032 -262.91423692 664.72263146 -262.92314246 652.97726101 C-262.9275323 647.43948717 -262.93289716 641.90171428 -262.93813133 636.36394119 C-262.95513546 617.94583268 -262.96962973 599.52772475 -262.97688007 581.1096096 C-262.97878979 576.33593113 -262.98071016 571.56225267 -262.98266602 566.78857422 C-262.98314976 565.60218029 -262.9836335 564.41578637 -262.9841319 563.19344111 C-262.99243283 543.97340643 -263.01777449 524.75343396 -263.05024669 505.53342645 C-263.08334631 485.7804146 -263.1013313 466.02743435 -263.10452431 446.27439463 C-263.10668629 435.19185625 -263.11538972 424.10940872 -263.14098549 413.02689743 C-263.16273182 403.5897259 -263.17072341 394.15266732 -263.16101871 384.71547358 C-263.15648595 379.90535065 -263.15830059 375.09546059 -263.17778015 370.28536987 C-263.19549738 365.87215759 -263.19434537 361.45934659 -263.17888286 357.04612954 C-263.17651976 355.45933912 -263.18076205 353.87252027 -263.19271151 352.28577308 C-263.28789549 338.79872611 -261.49184594 325.43064065 -255.125 313.3125 C-254.78694336 312.65757568 -254.44888672 312.00265137 -254.10058594 311.32788086 C-245.20727506 294.96299243 -229.93807616 284.15594974 -212.45835876 278.52163696 C-208.64480796 277.55164106 -205.39383635 277.28625772 -201.46704102 277.24365234 C-200.78326889 277.23360672 -200.09949677 277.2235611 -199.39500427 277.21321106 C-197.16047927 277.18260091 -194.92607281 277.16540656 -192.69140625 277.1484375 C-191.13198339 277.12970793 -189.57257048 277.11013321 -188.01316833 277.0897522 C-183.92800787 277.03861372 -179.84281461 276.9988907 -175.75750732 276.96160889 C-171.58109548 276.92145401 -167.40481789 276.87041429 -163.22851562 276.8203125 C-155.04826909 276.72376997 -146.86795563 276.63929652 -138.6875 276.5625 C-139.48545486 275.83478394 -140.28340973 275.10706787 -141.10554504 274.3572998 C-147.84638139 268.20061074 -154.4693438 261.9670485 -160.92504883 255.51025391 C-162.38020348 254.05730441 -163.84323575 252.61260265 -165.30664062 251.16796875 C-171.54139003 244.97024217 -177.24469829 238.47262483 -182.6875 231.5625 C-183.58068721 230.4556953 -184.4739082 229.34891787 -185.3671875 228.2421875 C-212.15271167 194.02153562 -231.20499019 152.59962973 -231 108.5 C-230.99508545 107.23575195 -230.9901709 105.97150391 -230.98510742 104.66894531 C-230.70729069 82.23275101 -226.07751893 61.47490662 -215.6875 41.5625 C-215.37941406 40.96840332 -215.07132812 40.37430664 -214.75390625 39.76220703 C-197.24284512 6.47484239 -167.64190689 -16.67512736 -132.00878906 -27.7578125 C-126.63710066 -29.33067541 -121.20905128 -30.51606012 -115.6875 -31.4375 C-114.14835937 -31.71400391 -114.14835937 -31.71400391 -112.578125 -31.99609375 C-72.05143323 -36.59400155 -32.31739711 -24.40994888 0 0 Z " fill="#FEF6E8" transform="translate(476.6875,102.4375)"/>
<path d="M0 0 C4.53569384 3.62343963 8.78086062 7.56960932 13.02734375 11.5234375 C15.13402022 13.58234928 15.13402022 13.58234928 17.3125 14.5625 C17.3125 15.2225 17.3125 15.8825 17.3125 16.5625 C18.3025 16.8925 19.2925 17.2225 20.3125 17.5625 C21.890625 19.12890625 21.890625 19.12890625 23.5625 21.125 C24.16707031 21.83785156 24.77164062 22.55070312 25.39453125 23.28515625 C26.34392578 24.41244141 26.34392578 24.41244141 27.3125 25.5625 C28.62193715 27.06517448 29.93429103 28.56531393 31.25 30.0625 C32.27083333 31.22916667 33.29166667 32.39583333 34.3125 33.5625 C37.69840789 30.91984019 40.6550232 28.27470857 43.4375 25 C66.86462844 -2.19584041 97.59556294 -20.64654738 132.3125 -29.4375 C132.98716309 -29.61539063 133.66182617 -29.79328125 134.35693359 -29.9765625 C153.9867817 -34.96695011 176.73461484 -34.29548428 196.3125 -29.4375 C197.57449219 -29.14746094 198.83648438 -28.85742188 200.13671875 -28.55859375 C223.04198596 -22.93232565 241.72612846 -11.92584827 259.3125 3.5625 C260.16328125 4.31015625 261.0140625 5.0578125 261.890625 5.828125 C286.24410935 28.77996996 301.10817409 63.43314097 302.43725586 96.68359375 C302.78413789 111.88156537 302.72496659 126.70405171 299.3125 141.5625 C299.11914062 142.41827637 298.92578125 143.27405273 298.7265625 144.15576172 C287.68670914 191.526614 258.16783638 229.65689725 224.5 263.5 C223.88995117 264.11472168 223.27990234 264.72944336 222.65136719 265.36279297 C222.0587207 265.95334473 221.46607422 266.54389648 220.85546875 267.15234375 C220.34008545 267.66659912 219.82470215 268.18085449 219.29370117 268.71069336 C216.38620198 271.42830043 213.3476994 273.98921957 210.3125 276.5625 C211.12523376 276.56836624 211.93796753 276.57423248 212.77532959 276.58027649 C220.48305088 276.63849099 228.19045946 276.71072869 235.89789963 276.79821491 C239.85915797 276.8426976 243.82031868 276.8820004 247.78173828 276.90893555 C251.61395787 276.93519166 255.44579715 276.97574587 259.27777863 277.02568626 C260.73034131 277.04220584 262.18296954 277.05381194 263.63561249 277.06011391 C283.65927899 277.15566144 299.22443589 282.79254284 313.6875 296.875 C326.04032756 309.89554797 333.42568135 326.60653295 333.44392776 344.64918518 C333.44700672 345.68909551 333.44700672 345.68909551 333.45014787 346.75001413 C333.45580092 349.07237441 333.45436271 351.39467508 333.45294189 353.71704102 C333.45552651 355.39928569 333.45853994 357.08152975 333.4619453 358.76377296 C333.47000737 363.38643504 333.47180443 368.00908159 333.47254276 372.63174987 C333.47439473 377.61764806 333.48194285 382.60353822 333.48867798 387.58943176 C333.50225681 398.49256022 333.50828549 409.39568499 333.51268864 420.2988205 C333.51545216 427.10890277 333.51968975 433.91898363 333.52419281 440.72906494 C333.53638553 459.58965974 333.54668442 478.4502534 333.5500679 497.31085205 C333.55028747 498.51787246 333.55050703 499.72489286 333.55073325 500.96848965 C333.55095153 502.17837834 333.55116981 503.38826704 333.5513947 504.63481903 C333.55183816 507.08646139 333.55228473 509.53810374 333.55273438 511.98974609 C333.5529558 513.20584218 333.55317723 514.42193827 333.55340537 515.67488575 C333.55735181 535.37180287 333.57480113 555.06868296 333.5980939 574.76558578 C333.62182333 594.9953268 333.6342705 615.22504926 333.63543582 635.45480442 C333.63635175 646.81006957 333.64208338 658.16528649 333.66025543 669.52053833 C333.67567797 679.19171145 333.68076421 688.86282143 333.67251733 698.53400451 C333.6686183 703.46532706 333.66950386 708.39652255 333.68357468 713.32782936 C333.69635849 717.84959658 333.69507694 722.37114183 333.68298396 726.89290893 C333.68103469 728.521503 333.6840695 730.15011305 333.69282833 731.77868474 C333.81229011 755.50911194 326.97210879 775.42912333 310.265625 792.703125 C294.39231318 808.44995625 275.21828888 815.04791064 253.28215981 815.09747362 C251.53234296 815.0888298 249.78252796 815.07980337 248.03271484 815.07043457 C246.13289603 815.07505333 244.23308081 815.08141274 242.33327293 815.08934355 C237.15548942 815.10592609 231.97800364 815.09784125 226.80021954 815.08539867 C221.1995773 815.07630485 215.59898433 815.09033931 209.99835205 815.10131836 C199.04358917 815.11906208 188.0889362 815.11528209 177.1341691 815.1036678 C168.22735604 815.0946174 159.32057367 815.09341642 150.41375732 815.09776306 C148.50893918 815.09868246 148.50893918 815.09868246 146.56563985 815.09962043 C143.98553609 815.10089939 141.40543233 815.10219625 138.82532859 815.1035108 C115.34602589 815.11457995 91.86679681 815.10312009 68.38750729 815.08214041 C46.98291555 815.06315993 25.57841903 815.06485852 4.17382812 815.08398438 C-19.91001527 815.10543265 -43.99379374 815.11380593 -68.07765007 815.10153532 C-70.64801915 815.10026119 -73.21838823 815.0990037 -75.78875732 815.09776306 C-77.05327685 815.09714596 -78.31779638 815.09652886 -79.62063468 815.09589306 C-88.51201575 815.092446 -97.40336294 815.0982546 -106.29473877 815.10768127 C-117.13713319 815.11892425 -127.97941184 815.11581288 -138.82179308 815.0945583 C-144.34887847 815.08407888 -149.87577115 815.07987294 -155.40285492 815.09315491 C-160.47087963 815.10514912 -165.53853456 815.09840119 -170.60652614 815.0772447 C-172.43135045 815.07280827 -174.25620656 815.07497754 -176.0810101 815.08474785 C-190.28714746 815.15492391 -204.09810089 813.77724452 -216.875 806.9375 C-217.52734619 806.59831543 -218.17969238 806.25913086 -218.85180664 805.90966797 C-238.77686645 795.17538426 -252.76233313 778.15438209 -259.6875 756.5625 C-263.00891124 745.04705772 -262.8368404 733.16523567 -262.83467102 721.28207397 C-262.83797536 719.63492549 -262.84170212 717.9877778 -262.8458125 716.34063113 C-262.85577517 711.83348368 -262.85953996 707.32634954 -262.86220181 702.81919265 C-262.86612178 697.95057221 -262.8756986 693.08196215 -262.88441467 688.21334839 C-262.90412744 676.46799032 -262.91423692 664.72263146 -262.92314246 652.97726101 C-262.9275323 647.43948717 -262.93289716 641.90171428 -262.93813133 636.36394119 C-262.95513546 617.94583268 -262.96962973 599.52772475 -262.97688007 581.1096096 C-262.97878979 576.33593113 -262.98071016 571.56225267 -262.98266602 566.78857422 C-262.98314976 565.60218029 -262.9836335 564.41578637 -262.9841319 563.19344111 C-262.99243283 543.97340643 -263.01777449 524.75343396 -263.05024669 505.53342645 C-263.08334631 485.7804146 -263.1013313 466.02743435 -263.10452431 446.27439463 C-263.10668629 435.19185625 -263.11538972 424.10940872 -263.14098549 413.02689743 C-263.16273182 403.5897259 -263.17072341 394.15266732 -263.16101871 384.71547358 C-263.15648595 379.90535065 -263.15830059 375.09546059 -263.17778015 370.28536987 C-263.19549738 365.87215759 -263.19434537 361.45934659 -263.17888286 357.04612954 C-263.17651976 355.45933912 -263.18076205 353.87252027 -263.19271151 352.28577308 C-263.28789549 338.79872611 -261.49184594 325.43064065 -255.125 313.3125 C-254.78694336 312.65757568 -254.44888672 312.00265137 -254.10058594 311.32788086 C-245.20727506 294.96299243 -229.93807616 284.15594974 -212.45835876 278.52163696 C-208.64480796 277.55164106 -205.39383635 277.28625772 -201.46704102 277.24365234 C-200.78326889 277.23360672 -200.09949677 277.2235611 -199.39500427 277.21321106 C-197.16047927 277.18260091 -194.92607281 277.16540656 -192.69140625 277.1484375 C-191.13198339 277.12970793 -189.57257048 277.11013321 -188.01316833 277.0897522 C-183.92800787 277.03861372 -179.84281461 276.9988907 -175.75750732 276.96160889 C-171.58109548 276.92145401 -167.40481789 276.87041429 -163.22851562 276.8203125 C-155.04826909 276.72376997 -146.86795563 276.63929652 -138.6875 276.5625 C-139.48545486 275.83478394 -140.28340973 275.10706787 -141.10554504 274.3572998 C-147.84638139 268.20061074 -154.4693438 261.9670485 -160.92504883 255.51025391 C-162.38020348 254.05730441 -163.84323575 252.61260265 -165.30664062 251.16796875 C-171.54139003 244.97024217 -177.24469829 238.47262483 -182.6875 231.5625 C-183.58068721 230.4556953 -184.4739082 229.34891787 -185.3671875 228.2421875 C-212.15271167 194.02153562 -231.20499019 152.59962973 -231 108.5 C-230.99508545 107.23575195 -230.9901709 105.97150391 -230.98510742 104.66894531 C-230.70729069 82.23275101 -226.07751893 61.47490662 -215.6875 41.5625 C-215.37941406 40.96840332 -215.07132812 40.37430664 -214.75390625 39.76220703 C-197.24284512 6.47484239 -167.64190689 -16.67512736 -132.00878906 -27.7578125 C-126.63710066 -29.33067541 -121.20905128 -30.51606012 -115.6875 -31.4375 C-114.14835937 -31.71400391 -114.14835937 -31.71400391 -112.578125 -31.99609375 C-72.05143323 -36.59400155 -32.31739711 -24.40994888 0 0 Z M-223.6875 320.5625 C-228.64029221 328.46520212 -231.80789939 335.92573357 -231.82172108 345.29656124 C-231.82407331 345.97600809 -231.82642554 346.65545493 -231.82884905 347.35549107 C-231.83553068 349.64284805 -231.83508108 351.93014812 -231.83467102 354.21751404 C-231.83797018 355.86987188 -231.84169586 357.52222892 -231.8458125 359.17458493 C-231.85583496 363.72388344 -231.8595497 368.27316876 -231.86220181 372.82247674 C-231.86610421 377.72591041 -231.87568269 382.62933362 -231.88441467 387.53276062 C-231.90418239 399.37997928 -231.91424634 411.22719881 -231.92314246 423.07442984 C-231.92752544 428.65394544 -231.93289228 434.23346008 -231.93813133 439.81297493 C-231.95514502 458.3620951 -231.96963856 476.91121468 -231.97688007 495.46034145 C-231.97878996 500.27458637 -231.9807103 505.08883128 -231.98266602 509.90307617 C-231.98314976 511.09963127 -231.9836335 512.29618637 -231.9841319 513.52900071 C-231.99242981 532.90663996 -232.01776209 552.28421742 -232.05024669 571.6618297 C-232.08332875 591.55814869 -232.10132993 611.4544363 -232.10452431 631.35078293 C-232.1066885 642.52106402 -232.1154237 653.69125505 -232.14098549 664.86150932 C-232.16270823 674.37613318 -232.17073518 683.89064511 -232.16101871 693.40529095 C-232.15647841 698.25753024 -232.15834456 703.10953869 -232.17778015 707.96174622 C-232.19544408 712.41019819 -232.19438798 716.85825146 -232.17888286 721.30670787 C-232.17651167 722.90977483 -232.18080482 724.51286963 -232.19271151 726.11589413 C-232.31300724 743.39186369 -228.10745203 757.46072461 -216.13671875 770.203125 C-205.98469679 779.98274424 -194.12505403 784.73209466 -180.08799458 784.69113445 C-179.32714153 784.69288749 -178.56628849 784.69464053 -177.7823793 784.69644669 C-175.22414886 784.70111124 -172.66597514 784.69864 -170.10774231 784.69621277 C-168.25851812 784.69808052 -166.40929433 784.70038107 -164.56007117 784.70307809 C-159.47136292 784.70920709 -154.38267107 784.7090612 -149.29395998 784.70788372 C-143.80845852 784.70767998 -138.32296237 784.71319587 -132.83746338 784.71794128 C-122.08711157 784.72625468 -111.33676525 784.72899645 -100.5864105 784.72955366 C-91.84853218 784.73002855 -83.11065568 784.73208191 -74.37277794 784.73525429 C-53.63784323 784.74262925 -32.90290973 784.7487789 -12.16797352 784.74825573 C-11.17314053 784.74823236 -11.17314053 784.74823236 -10.15820991 784.74820852 C-6.79671304 784.74812541 -3.43521617 784.74802637 -0.0737193 784.74792381 C0.59388694 784.74790387 1.26149317 784.74788392 1.9493299 784.74786337 C3.29939341 784.74782294 4.64945692 784.74778114 5.99952043 784.74773798 C26.99944307 784.74712537 47.99934956 784.75462892 68.99926758 784.76831055 C92.59256896 784.78367545 116.1858626 784.79226383 139.77916986 784.79134732 C152.27113949 784.7910152 164.76309092 784.79376919 177.25505638 784.80452538 C187.8918085 784.8136253 198.52853415 784.81580984 209.16528847 784.80901595 C214.59226969 784.80574805 220.01920012 784.80570384 225.44617653 784.8143692 C230.41615057 784.82222321 235.38603344 784.82081395 240.35600523 784.81208507 C242.15211912 784.81054765 243.94823978 784.81237534 245.74434569 784.81794515 C261.62988507 784.8639365 277.06128028 783.71344728 289.3125 772.25 C299.19127164 761.05239991 303.42476247 747.26777164 303.44672108 732.50614738 C303.44907331 731.82830413 303.45142554 731.15046087 303.45384905 730.45207691 C303.46048844 728.18823955 303.46008237 725.92446025 303.45967102 723.66061401 C303.46297278 722.01804141 303.46669901 720.37546961 303.4708125 718.73289883 C303.48080474 714.22458307 303.4845448 709.71628062 303.48720181 705.20795536 C303.49111301 700.34342957 303.50069063 695.47891424 303.50941467 690.61439514 C303.52915393 678.87076635 303.53924113 667.12713673 303.54814246 655.38349551 C303.55252869 649.85030956 303.55789455 644.31712456 303.56313133 638.78393936 C303.5801395 620.38653449 303.59463387 601.9891302 303.60188007 583.59171867 C303.60378989 578.82026036 303.60571024 574.04880205 303.60766602 569.27734375 C303.60814976 568.091457 303.6086335 566.90557025 303.6091319 565.68374754 C303.61743307 546.47119522 303.64277333 527.25870514 303.67524669 508.04617999 C303.7083286 488.31248781 303.72632978 468.57882726 303.72952431 448.8451072 C303.73168813 437.76876788 303.74041833 426.69251939 303.76598549 415.61620712 C303.78770773 406.18400078 303.79573529 396.75190735 303.78601871 387.31967883 C303.78147874 382.5099485 303.78334275 377.70045107 303.80278015 372.89075279 C303.82044581 368.48127825 303.81938663 364.07220591 303.80388286 359.66272689 C303.80151198 358.07388136 303.8058032 356.48500773 303.81771151 354.89620505 C303.91913363 340.46184145 301.81238411 328.29599614 291.46484375 317.6640625 C284.97525969 311.54862941 277.1650879 307.56671328 268.14949036 307.34803772 C267.32714401 307.32643082 266.50479767 307.30482391 265.65753174 307.28256226 C264.76354675 307.2641629 263.86956177 307.24576355 262.94848633 307.22680664 C261.99985214 307.20417252 261.05121796 307.18153839 260.07383728 307.15821838 C251.30013843 306.9606608 242.52503364 306.84544516 233.74963856 306.75499821 C227.8647794 306.69334204 221.98308976 306.60507537 216.09985352 306.45141602 C210.3954994 306.30309672 204.69401984 306.22551631 198.98785973 306.19528008 C196.82724769 306.17214904 194.66673825 306.12490025 192.5072422 306.05171394 C179.16276182 305.62031719 170.75229067 306.91162212 160.74719715 316.20317936 C159.50907213 317.4113207 158.28076873 318.62963018 157.06372643 319.85900688 C154.4500696 322.40142307 151.613809 324.51438029 148.6875 326.6875 C144.03143096 330.23028727 139.43621951 333.83595467 134.875 337.5 C128.30054327 342.77996044 121.68430614 348.00375369 115.04638672 353.20361328 C112.13283173 355.48703303 109.22285807 357.77500803 106.3125 360.0625 C105.14585027 360.97918823 103.97918361 361.8958549 102.8125 362.8125 C102.235 363.26625 101.6575 363.72 101.0625 364.1875 C95.8125 368.3125 95.8125 368.3125 94.06298828 369.68701172 C92.89455848 370.60513354 91.72626452 371.52342826 90.55810547 372.44189453 C87.66949494 374.71272369 84.77870452 376.98064946 81.8828125 379.2421875 C80.73419568 380.14039574 79.58575895 381.03883432 78.4375 381.9375 C77.86588135 382.38464355 77.2942627 382.83178711 76.70532227 383.29248047 C73.55148542 385.76977481 70.42772708 388.27846407 67.33203125 390.828125 C42.71240245 411.10519444 42.71240245 411.10519444 32.81640625 410.8828125 C22.70659513 409.58951373 14.57415852 401.25040176 7.03564453 394.99023438 C4.79478206 393.1335379 2.52530866 391.31424941 0.25 389.5 C-0.53246094 388.87351562 -1.31492187 388.24703125 -2.12109375 387.6015625 C-4.58959975 385.64028376 -7.06961305 383.69464713 -9.55273438 381.75195312 C-15.33520315 377.22737989 -21.06417228 372.64553789 -26.75 368 C-32.53607964 363.27403402 -38.40236932 358.68581745 -44.34375 354.15625 C-48.18637061 351.20038799 -51.93497212 348.13137436 -55.6875 345.0625 C-60.48925839 341.13637985 -65.31723914 337.26043831 -70.25 333.5 C-75.55679366 329.45422662 -80.77996589 325.31652505 -85.96118164 321.11108398 C-87.12586716 320.17121712 -88.3041199 319.24794566 -89.49450684 318.34085083 C-91.6875 316.5625 -91.6875 316.5625 -93.9150238 314.32298279 C-103.56773041 305.51799533 -113.5742757 306.31148478 -126.09375 306.5078125 C-128.26745236 306.51191612 -130.44116312 306.51274337 -132.61486816 306.51046753 C-137.15422965 306.51522934 -141.69197797 306.55026512 -146.23095703 306.60888672 C-152.02104879 306.68254347 -157.80918812 306.69455605 -163.59967804 306.68553352 C-168.08337313 306.68299613 -172.56664229 306.70619022 -177.05021667 306.73766708 C-179.18382327 306.75097007 -181.31747813 306.75812301 -183.4511261 306.75876236 C-198.98212241 306.79094942 -213.11225151 307.52036754 -223.6875 320.5625 Z " fill="#FE6159" transform="translate(476.6875,102.4375)"/>
<path d="M0 0 C4.53569384 3.62343963 8.78086062 7.56960932 13.02734375 11.5234375 C15.13402022 13.58234928 15.13402022 13.58234928 17.3125 14.5625 C17.3125 15.2225 17.3125 15.8825 17.3125 16.5625 C18.3025 16.8925 19.2925 17.2225 20.3125 17.5625 C21.890625 19.12890625 21.890625 19.12890625 23.5625 21.125 C24.16707031 21.83785156 24.77164062 22.55070312 25.39453125 23.28515625 C26.34392578 24.41244141 26.34392578 24.41244141 27.3125 25.5625 C28.62193715 27.06517448 29.93429103 28.56531393 31.25 30.0625 C32.27083333 31.22916667 33.29166667 32.39583333 34.3125 33.5625 C37.69840789 30.91984019 40.6550232 28.27470857 43.4375 25 C66.86462844 -2.19584041 97.59556294 -20.64654738 132.3125 -29.4375 C132.98716309 -29.61539063 133.66182617 -29.79328125 134.35693359 -29.9765625 C153.9867817 -34.96695011 176.73461484 -34.29548428 196.3125 -29.4375 C197.57449219 -29.14746094 198.83648438 -28.85742188 200.13671875 -28.55859375 C223.04198596 -22.93232565 241.72612846 -11.92584827 259.3125 3.5625 C260.16328125 4.31015625 261.0140625 5.0578125 261.890625 5.828125 C286.24410935 28.77996996 301.10817409 63.43314097 302.43725586 96.68359375 C302.78413789 111.88156537 302.72496659 126.70405171 299.3125 141.5625 C299.11914062 142.41827637 298.92578125 143.27405273 298.7265625 144.15576172 C287.68670914 191.526614 258.16783638 229.65689725 224.5 263.5 C223.88995117 264.11472168 223.27990234 264.72944336 222.65136719 265.36279297 C222.0587207 265.95334473 221.46607422 266.54389648 220.85546875 267.15234375 C220.34008545 267.66659912 219.82470215 268.18085449 219.29370117 268.71069336 C216.38620198 271.42830043 213.3476994 273.98921957 210.3125 276.5625 C211.12523376 276.56836624 211.93796753 276.57423248 212.77532959 276.58027649 C220.48305088 276.63849099 228.19045946 276.71072869 235.89789963 276.79821491 C239.85915797 276.8426976 243.82031868 276.8820004 247.78173828 276.90893555 C251.61395787 276.93519166 255.44579715 276.97574587 259.27777863 277.02568626 C260.73034131 277.04220584 262.18296954 277.05381194 263.63561249 277.06011391 C283.65927899 277.15566144 299.22443589 282.79254284 313.6875 296.875 C326.04032756 309.89554797 333.42568135 326.60653295 333.44392776 344.64918518 C333.44700672 345.68909551 333.44700672 345.68909551 333.45014787 346.75001413 C333.45580092 349.07237441 333.45436271 351.39467508 333.45294189 353.71704102 C333.45552651 355.39928569 333.45853994 357.08152975 333.4619453 358.76377296 C333.47000737 363.38643504 333.47180443 368.00908159 333.47254276 372.63174987 C333.47439473 377.61764806 333.48194285 382.60353822 333.48867798 387.58943176 C333.50225681 398.49256022 333.50828549 409.39568499 333.51268864 420.2988205 C333.51545216 427.10890277 333.51968975 433.91898363 333.52419281 440.72906494 C333.53638553 459.58965974 333.54668442 478.4502534 333.5500679 497.31085205 C333.55028747 498.51787246 333.55050703 499.72489286 333.55073325 500.96848965 C333.55095153 502.17837834 333.55116981 503.38826704 333.5513947 504.63481903 C333.55183816 507.08646139 333.55228473 509.53810374 333.55273438 511.98974609 C333.5529558 513.20584218 333.55317723 514.42193827 333.55340537 515.67488575 C333.55735181 535.37180287 333.57480113 555.06868296 333.5980939 574.76558578 C333.62182333 594.9953268 333.6342705 615.22504926 333.63543582 635.45480442 C333.63635175 646.81006957 333.64208338 658.16528649 333.66025543 669.52053833 C333.67567797 679.19171145 333.68076421 688.86282143 333.67251733 698.53400451 C333.6686183 703.46532706 333.66950386 708.39652255 333.68357468 713.32782936 C333.69635849 717.84959658 333.69507694 722.37114183 333.68298396 726.89290893 C333.68103469 728.521503 333.6840695 730.15011305 333.69282833 731.77868474 C333.81229011 755.50911194 326.97210879 775.42912333 310.265625 792.703125 C294.39231318 808.44995625 275.21828888 815.04791064 253.28215981 815.09747362 C251.53234296 815.0888298 249.78252796 815.07980337 248.03271484 815.07043457 C246.13289603 815.07505333 244.23308081 815.08141274 242.33327293 815.08934355 C237.15548942 815.10592609 231.97800364 815.09784125 226.80021954 815.08539867 C221.1995773 815.07630485 215.59898433 815.09033931 209.99835205 815.10131836 C199.04358917 815.11906208 188.0889362 815.11528209 177.1341691 815.1036678 C168.22735604 815.0946174 159.32057367 815.09341642 150.41375732 815.09776306 C148.50893918 815.09868246 148.50893918 815.09868246 146.56563985 815.09962043 C143.98553609 815.10089939 141.40543233 815.10219625 138.82532859 815.1035108 C115.34602589 815.11457995 91.86679681 815.10312009 68.38750729 815.08214041 C46.98291555 815.06315993 25.57841903 815.06485852 4.17382812 815.08398438 C-19.91001527 815.10543265 -43.99379374 815.11380593 -68.07765007 815.10153532 C-70.64801915 815.10026119 -73.21838823 815.0990037 -75.78875732 815.09776306 C-77.05327685 815.09714596 -78.31779638 815.09652886 -79.62063468 815.09589306 C-88.51201575 815.092446 -97.40336294 815.0982546 -106.29473877 815.10768127 C-117.13713319 815.11892425 -127.97941184 815.11581288 -138.82179308 815.0945583 C-144.34887847 815.08407888 -149.87577115 815.07987294 -155.40285492 815.09315491 C-160.47087963 815.10514912 -165.53853456 815.09840119 -170.60652614 815.0772447 C-172.43135045 815.07280827 -174.25620656 815.07497754 -176.0810101 815.08474785 C-190.28714746 815.15492391 -204.09810089 813.77724452 -216.875 806.9375 C-217.52734619 806.59831543 -218.17969238 806.25913086 -218.85180664 805.90966797 C-238.77686645 795.17538426 -252.76233313 778.15438209 -259.6875 756.5625 C-263.00891124 745.04705772 -262.8368404 733.16523567 -262.83467102 721.28207397 C-262.83797536 719.63492549 -262.84170212 717.9877778 -262.8458125 716.34063113 C-262.85577517 711.83348368 -262.85953996 707.32634954 -262.86220181 702.81919265 C-262.86612178 697.95057221 -262.8756986 693.08196215 -262.88441467 688.21334839 C-262.90412744 676.46799032 -262.91423692 664.72263146 -262.92314246 652.97726101 C-262.9275323 647.43948717 -262.93289716 641.90171428 -262.93813133 636.36394119 C-262.95513546 617.94583268 -262.96962973 599.52772475 -262.97688007 581.1096096 C-262.97878979 576.33593113 -262.98071016 571.56225267 -262.98266602 566.78857422 C-262.98314976 565.60218029 -262.9836335 564.41578637 -262.9841319 563.19344111 C-262.99243283 543.97340643 -263.01777449 524.75343396 -263.05024669 505.53342645 C-263.08334631 485.7804146 -263.1013313 466.02743435 -263.10452431 446.27439463 C-263.10668629 435.19185625 -263.11538972 424.10940872 -263.14098549 413.02689743 C-263.16273182 403.5897259 -263.17072341 394.15266732 -263.16101871 384.71547358 C-263.15648595 379.90535065 -263.15830059 375.09546059 -263.17778015 370.28536987 C-263.19549738 365.87215759 -263.19434537 361.45934659 -263.17888286 357.04612954 C-263.17651976 355.45933912 -263.18076205 353.87252027 -263.19271151 352.28577308 C-263.28789549 338.79872611 -261.49184594 325.43064065 -255.125 313.3125 C-254.78694336 312.65757568 -254.44888672 312.00265137 -254.10058594 311.32788086 C-245.20727506 294.96299243 -229.93807616 284.15594974 -212.45835876 278.52163696 C-208.64480796 277.55164106 -205.39383635 277.28625772 -201.46704102 277.24365234 C-200.78326889 277.23360672 -200.09949677 277.2235611 -199.39500427 277.21321106 C-197.16047927 277.18260091 -194.92607281 277.16540656 -192.69140625 277.1484375 C-191.13198339 277.12970793 -189.57257048 277.11013321 -188.01316833 277.0897522 C-183.92800787 277.03861372 -179.84281461 276.9988907 -175.75750732 276.96160889 C-171.58109548 276.92145401 -167.40481789 276.87041429 -163.22851562 276.8203125 C-155.04826909 276.72376997 -146.86795563 276.63929652 -138.6875 276.5625 C-139.48545486 275.83478394 -140.28340973 275.10706787 -141.10554504 274.3572998 C-147.84638139 268.20061074 -154.4693438 261.9670485 -160.92504883 255.51025391 C-162.38020348 254.05730441 -163.84323575 252.61260265 -165.30664062 251.16796875 C-171.54139003 244.97024217 -177.24469829 238.47262483 -182.6875 231.5625 C-183.58068721 230.4556953 -184.4739082 229.34891787 -185.3671875 228.2421875 C-212.15271167 194.02153562 -231.20499019 152.59962973 -231 108.5 C-230.99508545 107.23575195 -230.9901709 105.97150391 -230.98510742 104.66894531 C-230.70729069 82.23275101 -226.07751893 61.47490662 -215.6875 41.5625 C-215.37941406 40.96840332 -215.07132812 40.37430664 -214.75390625 39.76220703 C-197.24284512 6.47484239 -167.64190689 -16.67512736 -132.00878906 -27.7578125 C-126.63710066 -29.33067541 -121.20905128 -30.51606012 -115.6875 -31.4375 C-114.14835937 -31.71400391 -114.14835937 -31.71400391 -112.578125 -31.99609375 C-72.05143323 -36.59400155 -32.31739711 -24.40994888 0 0 Z M-161.6875 21.5625 C-162.50476563 22.24957031 -163.32203125 22.93664062 -164.1640625 23.64453125 C-185.1337773 41.73170217 -196.95413641 68.22960599 -200.4375 95.4375 C-200.54974356 97.14417765 -200.62806566 98.85316832 -200.6875 100.5625 C-200.71859863 101.19784668 -200.74969727 101.83319336 -200.78173828 102.48779297 C-203.04838814 152.98055095 -173.97360928 196.50625946 -141.27734375 232.3125 C-131.85869868 242.53654923 -122.30838176 252.82425134 -111.69921875 261.83203125 C-109.20466397 263.97783274 -106.79531018 266.20835677 -104.375 268.4375 C-99.88952448 272.5281056 -95.28169456 276.41067843 -90.55859375 280.22265625 C-87.45762849 282.74983747 -84.415879 285.33879779 -81.375 287.9375 C-76.38646434 292.1864455 -71.29419933 296.27685214 -66.12304688 300.30078125 C-61.65423994 303.78360554 -57.25768358 307.34713876 -52.875 310.9375 C-46.7000047 315.98793236 -40.41001904 320.86265624 -34.05249023 325.68041992 C-29.10266147 329.44483077 -24.24884957 333.31043963 -19.4375 337.25 C-13.75540442 341.90205234 -8.01217428 346.44166625 -2.171875 350.89453125 C1.26446934 353.51620759 4.668867 356.17793483 8.07275391 358.84155273 C10.39918015 360.65758709 12.73384782 362.46253257 15.0703125 364.265625 C17.5986896 366.21810019 20.09593754 368.19510506 22.5546875 370.234375 C27.38064505 374.08967254 31.36686565 376.99569045 37.74609375 376.38671875 C42.775685 374.77143145 46.52584134 371.41375556 50.51806641 368.05175781 C53.938638 365.21291608 57.48279484 362.52986332 61 359.8125 C62.55638895 358.59947057 64.11237584 357.3859251 65.66796875 356.171875 C70.02948804 352.7756472 74.41638942 349.41377208 78.8125 346.0625 C85.43393534 341.01364595 92.01563091 335.91597337 98.57983398 330.79296875 C102.94991496 327.38641109 107.3429835 324.01337483 111.75927734 320.66699219 C120.51039681 314.03044048 129.01401102 307.13155074 137.45410156 300.10498047 C139.9764979 298.01137825 142.51904581 295.94293884 145.0625 293.875 C149.58286075 290.18337206 154.04099755 286.42274986 158.48413086 282.63891602 C161.81978094 279.80393376 165.20227833 277.04246691 168.625 274.3125 C180.74477418 264.38533454 191.77462787 253.20704561 202.87625122 242.17398071 C204.10933846 240.94896692 205.34389927 239.72543433 206.58004761 238.50350952 C213.98228507 231.17746583 220.85574538 223.7454632 227.3125 215.5625 C228.80849706 213.76748963 230.30808921 211.97546466 231.8125 210.1875 C259.31310704 176.44325428 275.99507392 136.60699084 271.6875 92.6875 C268.12853078 68.02186612 258.43602608 46.68823915 241.3125 28.5625 C240.62414062 27.79808594 239.93578125 27.03367187 239.2265625 26.24609375 C221.83062766 7.65378421 195.09252014 -1.75835772 170.13671875 -2.66015625 C133.16329535 -3.49324145 102.24777377 10.75062494 75.3125 35.5625 C74.76352051 36.06620117 74.21454102 36.56990234 73.64892578 37.08886719 C65.54743424 44.61563137 58.75409157 52.82939497 52.1875 61.71484375 C44.22096366 72.4717303 44.22096366 72.4717303 39.3125 73.5625 C34.48453982 74.08093868 30.81837696 74.32453438 26.40234375 72.08984375 C22.37362886 68.79454851 19.75752324 65.00719986 16.8125 60.75 C-5.47697876 29.55903888 -36.49522432 4.86415689 -75.01171875 -1.6640625 C-105.27051788 -5.99467962 -138.39207365 0.98933611 -161.6875 21.5625 Z M-223.6875 320.5625 C-228.64029221 328.46520212 -231.80789939 335.92573357 -231.82172108 345.29656124 C-231.82407331 345.97600809 -231.82642554 346.65545493 -231.82884905 347.35549107 C-231.83553068 349.64284805 -231.83508108 351.93014812 -231.83467102 354.21751404 C-231.83797018 355.86987188 -231.84169586 357.52222892 -231.8458125 359.17458493 C-231.85583496 363.72388344 -231.8595497 368.27316876 -231.86220181 372.82247674 C-231.86610421 377.72591041 -231.87568269 382.62933362 -231.88441467 387.53276062 C-231.90418239 399.37997928 -231.91424634 411.22719881 -231.92314246 423.07442984 C-231.92752544 428.65394544 -231.93289228 434.23346008 -231.93813133 439.81297493 C-231.95514502 458.3620951 -231.96963856 476.91121468 -231.97688007 495.46034145 C-231.97878996 500.27458637 -231.9807103 505.08883128 -231.98266602 509.90307617 C-231.98314976 511.09963127 -231.9836335 512.29618637 -231.9841319 513.52900071 C-231.99242981 532.90663996 -232.01776209 552.28421742 -232.05024669 571.6618297 C-232.08332875 591.55814869 -232.10132993 611.4544363 -232.10452431 631.35078293 C-232.1066885 642.52106402 -232.1154237 653.69125505 -232.14098549 664.86150932 C-232.16270823 674.37613318 -232.17073518 683.89064511 -232.16101871 693.40529095 C-232.15647841 698.25753024 -232.15834456 703.10953869 -232.17778015 707.96174622 C-232.19544408 712.41019819 -232.19438798 716.85825146 -232.17888286 721.30670787 C-232.17651167 722.90977483 -232.18080482 724.51286963 -232.19271151 726.11589413 C-232.31300724 743.39186369 -228.10745203 757.46072461 -216.13671875 770.203125 C-205.98469679 779.98274424 -194.12505403 784.73209466 -180.08799458 784.69113445 C-179.32714153 784.69288749 -178.56628849 784.69464053 -177.7823793 784.69644669 C-175.22414886 784.70111124 -172.66597514 784.69864 -170.10774231 784.69621277 C-168.25851812 784.69808052 -166.40929433 784.70038107 -164.56007117 784.70307809 C-159.47136292 784.70920709 -154.38267107 784.7090612 -149.29395998 784.70788372 C-143.80845852 784.70767998 -138.32296237 784.71319587 -132.83746338 784.71794128 C-122.08711157 784.72625468 -111.33676525 784.72899645 -100.5864105 784.72955366 C-91.84853218 784.73002855 -83.11065568 784.73208191 -74.37277794 784.73525429 C-53.63784323 784.74262925 -32.90290973 784.7487789 -12.16797352 784.74825573 C-11.17314053 784.74823236 -11.17314053 784.74823236 -10.15820991 784.74820852 C-6.79671304 784.74812541 -3.43521617 784.74802637 -0.0737193 784.74792381 C0.59388694 784.74790387 1.26149317 784.74788392 1.9493299 784.74786337 C3.29939341 784.74782294 4.64945692 784.74778114 5.99952043 784.74773798 C26.99944307 784.74712537 47.99934956 784.75462892 68.99926758 784.76831055 C92.59256896 784.78367545 116.1858626 784.79226383 139.77916986 784.79134732 C152.27113949 784.7910152 164.76309092 784.79376919 177.25505638 784.80452538 C187.8918085 784.8136253 198.52853415 784.81580984 209.16528847 784.80901595 C214.59226969 784.80574805 220.01920012 784.80570384 225.44617653 784.8143692 C230.41615057 784.82222321 235.38603344 784.82081395 240.35600523 784.81208507 C242.15211912 784.81054765 243.94823978 784.81237534 245.74434569 784.81794515 C261.62988507 784.8639365 277.06128028 783.71344728 289.3125 772.25 C299.19127164 761.05239991 303.42476247 747.26777164 303.44672108 732.50614738 C303.44907331 731.82830413 303.45142554 731.15046087 303.45384905 730.45207691 C303.46048844 728.18823955 303.46008237 725.92446025 303.45967102 723.66061401 C303.46297278 722.01804141 303.46669901 720.37546961 303.4708125 718.73289883 C303.48080474 714.22458307 303.4845448 709.71628062 303.48720181 705.20795536 C303.49111301 700.34342957 303.50069063 695.47891424 303.50941467 690.61439514 C303.52915393 678.87076635 303.53924113 667.12713673 303.54814246 655.38349551 C303.55252869 649.85030956 303.55789455 644.31712456 303.56313133 638.78393936 C303.5801395 620.38653449 303.59463387 601.9891302 303.60188007 583.59171867 C303.60378989 578.82026036 303.60571024 574.04880205 303.60766602 569.27734375 C303.60814976 568.091457 303.6086335 566.90557025 303.6091319 565.68374754 C303.61743307 546.47119522 303.64277333 527.25870514 303.67524669 508.04617999 C303.7083286 488.31248781 303.72632978 468.57882726 303.72952431 448.8451072 C303.73168813 437.76876788 303.74041833 426.69251939 303.76598549 415.61620712 C303.78770773 406.18400078 303.79573529 396.75190735 303.78601871 387.31967883 C303.78147874 382.5099485 303.78334275 377.70045107 303.80278015 372.89075279 C303.82044581 368.48127825 303.81938663 364.07220591 303.80388286 359.66272689 C303.80151198 358.07388136 303.8058032 356.48500773 303.81771151 354.89620505 C303.91913363 340.46184145 301.81238411 328.29599614 291.46484375 317.6640625 C284.97525969 311.54862941 277.1650879 307.56671328 268.14949036 307.34803772 C267.32714401 307.32643082 266.50479767 307.30482391 265.65753174 307.28256226 C264.76354675 307.2641629 263.86956177 307.24576355 262.94848633 307.22680664 C261.99985214 307.20417252 261.05121796 307.18153839 260.07383728 307.15821838 C251.30013843 306.9606608 242.52503364 306.84544516 233.74963856 306.75499821 C227.8647794 306.69334204 221.98308976 306.60507537 216.09985352 306.45141602 C210.3954994 306.30309672 204.69401984 306.22551631 198.98785973 306.19528008 C196.82724769 306.17214904 194.66673825 306.12490025 192.5072422 306.05171394 C179.16276182 305.62031719 170.75229067 306.91162212 160.74719715 316.20317936 C159.50907213 317.4113207 158.28076873 318.62963018 157.06372643 319.85900688 C154.4500696 322.40142307 151.613809 324.51438029 148.6875 326.6875 C144.03143096 330.23028727 139.43621951 333.83595467 134.875 337.5 C128.30054327 342.77996044 121.68430614 348.00375369 115.04638672 353.20361328 C112.13283173 355.48703303 109.22285807 357.77500803 106.3125 360.0625 C105.14585027 360.97918823 103.97918361 361.8958549 102.8125 362.8125 C102.235 363.26625 101.6575 363.72 101.0625 364.1875 C95.8125 368.3125 95.8125 368.3125 94.06298828 369.68701172 C92.89455848 370.60513354 91.72626452 371.52342826 90.55810547 372.44189453 C87.66949494 374.71272369 84.77870452 376.98064946 81.8828125 379.2421875 C80.73419568 380.14039574 79.58575895 381.03883432 78.4375 381.9375 C77.86588135 382.38464355 77.2942627 382.83178711 76.70532227 383.29248047 C73.55148542 385.76977481 70.42772708 388.27846407 67.33203125 390.828125 C42.71240245 411.10519444 42.71240245 411.10519444 32.81640625 410.8828125 C22.70659513 409.58951373 14.57415852 401.25040176 7.03564453 394.99023438 C4.79478206 393.1335379 2.52530866 391.31424941 0.25 389.5 C-0.53246094 388.87351562 -1.31492187 388.24703125 -2.12109375 387.6015625 C-4.58959975 385.64028376 -7.06961305 383.69464713 -9.55273438 381.75195312 C-15.33520315 377.22737989 -21.06417228 372.64553789 -26.75 368 C-32.53607964 363.27403402 -38.40236932 358.68581745 -44.34375 354.15625 C-48.18637061 351.20038799 -51.93497212 348.13137436 -55.6875 345.0625 C-60.48925839 341.13637985 -65.31723914 337.26043831 -70.25 333.5 C-75.55679366 329.45422662 -80.77996589 325.31652505 -85.96118164 321.11108398 C-87.12586716 320.17121712 -88.3041199 319.24794566 -89.49450684 318.34085083 C-91.6875 316.5625 -91.6875 316.5625 -93.9150238 314.32298279 C-103.56773041 305.51799533 -113.5742757 306.31148478 -126.09375 306.5078125 C-128.26745236 306.51191612 -130.44116312 306.51274337 -132.61486816 306.51046753 C-137.15422965 306.51522934 -141.69197797 306.55026512 -146.23095703 306.60888672 C-152.02104879 306.68254347 -157.80918812 306.69455605 -163.59967804 306.68553352 C-168.08337313 306.68299613 -172.56664229 306.70619022 -177.05021667 306.73766708 C-179.18382327 306.75097007 -181.31747813 306.75812301 -183.4511261 306.75876236 C-198.98212241 306.79094942 -213.11225151 307.52036754 -223.6875 320.5625 Z " fill="#060D0E" transform="translate(476.6875,102.4375)"/>
<path d="M0 0 C8.74605304 4.57980711 14.43798128 12.30541935 18.04296875 21.29296875 C20.62936883 29.91430236 20.39470322 39.76221295 16.93359375 48.0859375 C13.25451006 54.74372886 8.5708788 60.74155084 4.00048828 66.80517578 C1.19137369 70.55505316 -1.53617376 74.36272267 -4.26953125 78.16796875 C-5.35111001 79.66699325 -6.43314234 81.16569059 -7.515625 82.6640625 C-8.05171387 83.40640137 -8.58780273 84.14874023 -9.14013672 84.91357422 C-10.77672274 87.17791874 -12.4154429 89.44070456 -14.0546875 91.703125 C-19.33533547 98.99544839 -24.58904465 106.30406995 -29.76953125 113.66796875 C-36.56185949 123.32304976 -43.4877304 132.88002395 -50.41503906 142.43847656 C-56.34933846 150.6294317 -62.25804994 158.83559989 -68.08203125 167.10546875 C-68.58138184 167.811875 -69.08073242 168.51828125 -69.59521484 169.24609375 C-71.74228253 172.28365364 -73.87777228 175.32593181 -75.98046875 178.39453125 C-81.68030536 186.57255768 -88.42849676 195.27786754 -98.76953125 197.16796875 C-108.27387614 198.32799975 -115.16749987 196.5413856 -122.7109375 190.65234375 C-128.0205725 185.73067791 -132.22655215 179.77840466 -136.56298828 174.01171875 C-140.56298051 168.69827912 -144.70234951 163.52927057 -148.95703125 158.41796875 C-153.87218032 152.50568903 -158.63511562 146.51375015 -163.2890625 140.39453125 C-165.99317555 136.85361219 -168.78741184 133.38757324 -171.58203125 129.91796875 C-173.64876937 127.33800247 -175.70993767 124.75364066 -177.76953125 122.16796875 C-178.34767578 121.44432129 -178.92582031 120.72067383 -179.52148438 119.97509766 C-181.3030158 117.73558277 -183.06908063 115.48462789 -184.83203125 113.23046875 C-185.65441284 112.20228027 -185.65441284 112.20228027 -186.4934082 111.15332031 C-193.48439498 102.1410146 -195.78632335 92.47803975 -194.76953125 81.16796875 C-192.18288637 71.57191831 -186.90358925 63.87911586 -178.76953125 58.16796875 C-171.50151324 54.50818663 -163.9777527 54.0537214 -156.20703125 56.29296875 C-144.11173152 60.82870615 -136.70577494 71.88605498 -129.06079102 81.71264648 C-125.75204616 85.95481772 -122.36532654 90.11983267 -118.89453125 94.23046875 C-118.45455811 94.75415039 -118.01458496 95.27783203 -117.5612793 95.81738281 C-111.70949541 102.93403661 -111.70949541 102.93403661 -103.76953125 107.16796875 C-99.38575627 102.34581627 -95.78821861 97.29755175 -92.21875 91.8515625 C-83.79702635 79.08544018 -74.76243635 66.7102324 -65.78515625 54.33203125 C-63.09552939 50.62319522 -60.42756277 46.89948808 -57.76953125 43.16796875 C-52.30416816 35.50412832 -46.80656017 27.86427291 -41.27099609 20.25097656 C-39.9141516 18.36860303 -38.58179621 16.4719529 -37.2578125 14.56640625 C-28.12585734 1.72110807 -15.8281743 -5.96708164 0 0 Z " fill="#050D0E" transform="translate(482.76953125,549.83203125)"/>
<path d="M0 0 C12.42221018 5.30386502 19.75295238 22.09111473 24.55712891 33.96362305 C29.18979992 46.06935839 32.59924902 59.00898911 33 72 C33.02578125 72.66161133 33.0515625 73.32322266 33.078125 74.00488281 C34.62771661 118.07139413 13.77304327 159.08702474 -15.4375 191.1875 C-16.51837891 192.32251953 -16.51837891 192.32251953 -17.62109375 193.48046875 C-19.54403339 195.5170797 -21.37910329 197.58389652 -23.20629883 199.70458984 C-26.69308708 203.69738378 -30.33414935 207.49525929 -34.078125 211.24609375 C-34.73020935 211.9015065 -35.3822937 212.55691925 -36.05413818 213.23219299 C-37.42427239 214.60735046 -38.79572798 215.98119255 -40.16845703 217.35375977 C-42.23630661 219.42379215 -44.29601525 221.50169673 -46.35546875 223.58007812 C-53.60411729 230.85893301 -60.9354452 237.62801694 -69 244 C-70.87656113 245.62730509 -72.68496457 247.30282402 -74.5 249 C-79.31190433 253.41881919 -84.28269633 257.57233762 -89.3671875 261.671875 C-91.21430784 263.17431738 -93.04527845 264.69516863 -94.875 266.21875 C-102.70919472 272.73444463 -110.6323727 279.0862338 -118.75537109 285.23852539 C-123.4777761 288.81936406 -128.1343106 292.47023436 -132.75 296.1875 C-139.42471866 301.55913392 -146.18869164 306.80287842 -153 312 C-154.37772879 313.05322242 -155.75532619 314.10661672 -157.1328125 315.16015625 C-159.31962041 316.83262379 -161.50651364 318.50497838 -163.69384766 320.17675781 C-168.05090961 323.50718397 -172.40383794 326.84286225 -176.75 330.1875 C-177.77351562 330.97511719 -178.79703125 331.76273437 -179.8515625 332.57421875 C-182.09743952 334.3046029 -184.34219357 336.03638676 -186.5859375 337.76953125 C-187.17793945 338.22626221 -187.76994141 338.68299316 -188.37988281 339.15356445 C-189.51268507 340.02757179 -190.64488277 340.90236344 -191.77636719 341.77807617 C-196.81770385 345.66590016 -199.791644 347.72132094 -206.20703125 347.5546875 C-211.16775093 346.56948163 -214.5673769 343.53239806 -218.37988281 340.34472656 C-220.21626801 338.82049364 -222.08545391 337.34302194 -223.9609375 335.8671875 C-234.26298273 327.73701727 -234.26298273 327.73701727 -237 325 C-235.26556641 324.18015625 -235.26556641 324.18015625 -233.49609375 323.34375 C-229.04144624 321.11300185 -225.08635349 318.42252795 -221.0625 315.5 C-219.56135403 314.42426129 -218.06004747 313.34874663 -216.55859375 312.2734375 C-215.80046387 311.7278418 -215.04233398 311.18224609 -214.26123047 310.62011719 C-211.42444977 308.58763212 -208.56669022 306.58610873 -205.70776367 304.58496094 C-169.36978787 279.11302385 -133.85162828 251.86995699 -101 222 C-99.25013841 220.437345 -97.50013883 218.8748445 -95.75 217.3125 C-92.90679909 214.76434824 -90.15400194 212.18168647 -87.5 209.4375 C-85 207 -85 207 -83 207 C-82.67 206.01 -82.34 205.02 -82 204 C-79.5625 201.3125 -79.5625 201.3125 -77 199 C-76.34 199 -75.68 199 -75 199 C-75 198.34 -75 197.68 -75 197 C-73.38421206 195.28396244 -71.70581162 193.62657993 -70 192 C-63.34846383 185.51568122 -56.98456146 179.04921391 -51.19921875 171.7578125 C-48.92463583 168.9054936 -46.56130007 166.14506241 -44.1875 163.375 C-19.56829632 133.77107348 -2.30685487 100.09179202 4 62 C4.29197266 60.27523437 4.29197266 60.27523437 4.58984375 58.515625 C6.6426672 40.91999544 4.30566966 23.17572011 0.5859375 5.9765625 C0 3 0 3 0 0 Z " fill="#DF345B" transform="translate(716,131)"/>
<path d="M0 0 C0.69918061 -0.0055344 1.39836122 -0.01106879 2.11872911 -0.0167709 C4.44959644 -0.03032866 6.77938384 -0.01543591 9.11022949 -0.00050354 C10.78609165 -0.00428851 12.46195068 -0.00979003 14.13780212 -0.01687622 C18.68122656 -0.03082489 23.22427205 -0.01966523 27.7676754 -0.00316501 C32.52545841 0.01069782 37.2832197 0.00422401 42.04101562 0.0007019 C50.03045754 -0.00199924 58.01974913 0.01146718 66.00915527 0.03465271 C75.24211362 0.06126184 84.47482065 0.06300918 93.7078042 0.05126435 C102.59465909 0.04047994 111.48142319 0.04667885 120.36827087 0.06081963 C124.14804738 0.06657367 127.92775732 0.06650131 131.70753479 0.06175423 C136.15963008 0.05697703 140.61145067 0.06711687 145.06349373 0.08870888 C146.69610226 0.0942668 148.32873723 0.09475117 149.96134758 0.08975601 C152.1925527 0.08378619 154.42292275 0.0963398 156.65405273 0.11352539 C158.52558643 0.11717023 158.52558643 0.11717023 160.43492889 0.12088871 C165.49822719 0.6885779 168.73557349 2.29175766 172.13952637 6.06370544 C175.54996227 10.98989064 175.69460323 15.61465588 174.82702637 21.50120544 C172.50162342 25.78843043 169.34875098 28.69000883 164.82702637 30.50120544 C161.66540718 30.75847435 161.66540718 30.75847435 157.8565979 30.76863098 C157.15504259 30.77316209 156.45348728 30.77769321 155.73067272 30.78236163 C153.38007389 30.79502104 151.0297063 30.79338429 148.67907715 30.79173279 C146.99365948 30.79771707 145.30824456 30.80452239 143.62283325 30.81208801 C139.04428623 30.82976519 134.46581396 30.83444411 129.88723612 30.83571959 C126.06515808 30.8376185 122.24309745 30.84497593 118.42102611 30.85206378 C109.40351853 30.86835179 100.38605088 30.87323234 91.36853027 30.87181091 C82.06629161 30.87060928 72.76428488 30.89171438 63.46210492 30.92329824 C55.4755736 30.9494488 47.48911809 30.96017872 39.50254428 30.95890009 C34.7325614 30.95839011 29.96278463 30.9640934 25.19284439 30.9852562 C20.70628235 31.00461811 16.22012346 31.00477716 11.73354721 30.99022293 C10.08802451 30.9881312 8.44247671 30.99285746 6.79699707 31.00494385 C4.54799851 31.02039171 2.30039093 31.01109296 0.05142212 30.99568176 C-1.20623899 30.9967713 -2.46390011 30.99786083 -3.75967216 30.99898338 C-8.79735558 30.26431412 -11.78607021 27.70562157 -15.54797363 24.43870544 C-18.063473 19.89145659 -17.90457404 15.57761642 -17.17297363 10.50120544 C-13.62940066 3.0051857 -8.12736575 0.00136326 0 0 Z " fill="#040B0D" transform="translate(550.1729736328125,643.4987945556641)"/>
<path d="M0 0 C0.70649329 -0.00538554 1.41298658 -0.01077108 2.14088875 -0.01631981 C4.50231252 -0.03059878 6.86317568 -0.02349609 9.22462463 -0.01637268 C10.92004344 -0.0220763 12.6154584 -0.02904053 14.31086731 -0.03717041 C18.91212236 -0.05511795 23.51318688 -0.05393044 28.11446643 -0.04822803 C31.95648322 -0.04513847 35.79846329 -0.05122604 39.64047486 -0.05726677 C48.70452588 -0.07131564 57.76848266 -0.06974771 66.83253479 -0.05836487 C76.18195274 -0.04688308 85.53108386 -0.06095951 94.88046402 -0.08776134 C102.90948743 -0.10991594 110.9384208 -0.11655627 118.96747261 -0.11068493 C123.76201976 -0.1073136 128.55638303 -0.10974214 133.35090446 -0.12693596 C137.85965834 -0.14239918 142.3679872 -0.13845656 146.87672424 -0.11963081 C148.53030376 -0.1159432 150.18391473 -0.11905847 151.83746529 -0.1295166 C154.09737417 -0.14271718 156.35587408 -0.13118917 158.61572266 -0.11352539 C160.51132761 -0.11321146 160.51132761 -0.11321146 162.44522762 -0.1128912 C167.6970488 0.65442181 170.7478821 3.14594889 174.24635315 7.01268005 C176.44670328 11.58263803 176.68224848 15.40067378 175.87135315 20.38768005 C173.64137519 24.7679939 170.97476789 28.35432125 166.17446613 29.95270061 C163.09789008 30.53376083 160.15336956 30.52400069 157.02154541 30.53485107 C155.98864678 30.54036611 155.98864678 30.54036611 154.93488151 30.54599255 C152.62813465 30.5570032 150.32143287 30.56086874 148.0146637 30.56468201 C146.36042641 30.57094855 144.70619053 30.57759552 143.05195618 30.58459473 C137.62067135 30.60561159 132.1893863 30.6159936 126.7580719 30.6259613 C124.88726601 30.63000948 123.01646027 30.63412642 121.14565468 30.63831139 C112.35760447 30.65735635 103.56956263 30.6715899 94.78149575 30.67992336 C84.64016655 30.68969925 74.4990554 30.71603086 64.35780305 30.75642425 C56.51648705 30.78658444 48.67523357 30.80139206 40.8338607 30.80470437 C36.15157981 30.80705459 31.46953208 30.81601172 26.78731346 30.84116554 C22.38202108 30.86445018 17.97711532 30.86867799 13.57177734 30.85840416 C11.95730618 30.85790881 10.34281594 30.86422894 8.72840309 30.87796021 C6.51917825 30.89569557 4.31133864 30.88856658 2.10211182 30.87542725 C0.86749553 30.8778156 -0.36712076 30.88020395 -1.63914967 30.88266468 C-7.0738458 30.11175389 -10.75220547 27.83470818 -14.56614685 23.82518005 C-16.78173224 18.95089219 -16.90495911 14.65719356 -16.12864685 9.38768005 C-12.57368575 2.0144274 -7.93835149 0.01526831 0 0 Z " fill="#060D0E" transform="translate(549.1286468505859,553.6123199462891)"/>
<path d="M0 0 C1.05489624 -0.00935994 1.05489624 -0.00935994 2.13110352 -0.01890898 C4.47576936 -0.03479977 6.81938988 -0.02225106 9.1640625 -0.00964355 C10.84977828 -0.01506645 12.53548932 -0.02219005 14.22119141 -0.03088379 C18.79145963 -0.04910026 23.36136618 -0.04205658 27.93164062 -0.02936745 C32.71745774 -0.01923109 37.50324416 -0.02863489 42.2890625 -0.03491211 C50.32557731 -0.04218666 58.36194503 -0.03260586 66.3984375 -0.0135498 C75.68597197 0.00821857 84.97315519 0.00116706 94.26068115 -0.02085543 C102.23877974 -0.0390149 110.21677267 -0.04156507 118.19488525 -0.03110075 C122.95810706 -0.02486883 127.72116384 -0.02402189 132.484375 -0.0372467 C136.96279317 -0.04881255 141.44075904 -0.04076615 145.91912842 -0.01766968 C147.56141408 -0.0123865 149.20373788 -0.01388971 150.8460083 -0.02272034 C153.09055875 -0.03367555 155.33366615 -0.01991476 157.578125 0 C158.83318848 0.0015081 160.08825195 0.0030162 161.38134766 0.00457001 C166.41205701 0.74767233 169.4056598 3.30655854 173.1640625 6.57043457 C175.67594212 11.11114004 175.53353168 15.43809946 174.7890625 20.50793457 C172.786666 24.51272757 170.60907373 27.16663737 166.7890625 29.50793457 C163.3352764 30.6591966 160.65965867 30.63965444 157.01481628 30.64837646 C155.97601561 30.65283315 155.97601561 30.65283315 154.91622907 30.65737987 C152.59021801 30.66606768 150.26425842 30.66757518 147.93823242 30.66906738 C146.27266835 30.6736955 144.60710535 30.67872015 142.94154358 30.68411255 C138.41253759 30.69723917 133.88354642 30.70368202 129.35452437 30.70812321 C126.5253878 30.7110535 123.69625528 30.71515823 120.86712074 30.71962738 C112.01659609 30.73330299 103.1660807 30.74296934 94.31554621 30.74682927 C84.09669644 30.75131036 73.87798039 30.76886032 63.65917128 30.79782987 C55.76183968 30.81944155 47.86454571 30.82953328 39.96718484 30.83087039 C35.2497556 30.83191878 30.53245207 30.83783392 25.81505394 30.85569 C21.37699369 30.87216181 16.93915375 30.87433054 12.50107384 30.86555099 C10.8732901 30.86478014 9.24549457 30.86912971 7.61774063 30.87900925 C5.39298475 30.89171901 3.16901033 30.88585784 0.94425964 30.87542725 C-0.2999516 30.87689381 -1.54416285 30.87836037 -2.82607746 30.87987137 C-7.88869922 30.32357796 -11.12154217 28.71510237 -14.5234375 24.94543457 C-17.79321208 20.22242684 -17.8279544 16.15668083 -17.2109375 10.50793457 C-13.5963555 3.0007258 -8.176562 0.00982508 0 0 Z " fill="#050C0D" transform="translate(550.2109375,732.4920654296875)"/>
<path d="M0 0 C0.91007813 0.00902344 1.82015625 0.01804687 2.7578125 0.02734375 C3.80582031 0.04474609 3.80582031 0.04474609 4.875 0.0625 C5.4121447 5.41791279 3.87336688 8.22179642 0.6875 12.3125 C-0.23731681 13.55183145 -1.16177855 14.79142791 -2.0859375 16.03125 C-2.58061523 16.68480469 -3.07529297 17.33835937 -3.58496094 18.01171875 C-6.25822543 21.57155099 -8.8403054 25.19702032 -11.4375 28.8125 C-12.54628591 30.34808178 -13.65566699 31.88323398 -14.765625 33.41796875 C-15.32056641 34.18544434 -15.87550781 34.95291992 -16.44726562 35.74365234 C-18.10453105 38.03420924 -19.76309095 40.32382396 -21.421875 42.61328125 C-26.69832794 49.90059915 -31.94826124 57.20392863 -37.125 64.5625 C-42.83870051 72.68434561 -48.64447472 80.73743568 -54.47070312 88.77880859 C-61.10729529 97.9403616 -67.73880411 107.10567587 -74.3125 116.3125 C-74.70783936 116.86542725 -75.10317871 117.41835449 -75.51049805 117.98803711 C-77.6508908 120.9847628 -79.7784908 123.98992864 -81.89453125 127.00390625 C-82.35126221 127.65133789 -82.80799316 128.29876953 -83.27856445 128.96582031 C-84.15697091 130.21135766 -85.03197544 131.45930323 -85.90307617 132.70996094 C-88.89997671 136.94998836 -88.89997671 136.94998836 -91.125 138.0625 C-96.40867644 138.62886423 -96.40867644 138.62886423 -99.21484375 136.41015625 C-99.82457031 135.65605469 -100.43429687 134.90195312 -101.0625 134.125 C-101.74699219 133.29355469 -102.43148437 132.46210937 -103.13671875 131.60546875 C-103.79285156 130.76628906 -104.44898438 129.92710937 -105.125 129.0625 C-105.66769531 128.37800781 -106.21039063 127.69351563 -106.76953125 126.98828125 C-107.88581101 125.56237645 -108.99326686 124.12953763 -110.09375 122.69140625 C-112.64729742 119.3865266 -115.2601466 116.13145136 -117.875 112.875 C-121.88463284 107.87755942 -125.86461219 102.85884555 -129.8125 97.8125 C-133.81314302 92.70218957 -137.88391997 87.65630811 -142.0078125 82.64453125 C-145.42043409 78.48264403 -148.77008142 74.27092037 -152.125 70.0625 C-153.62468628 68.18724906 -155.12467846 66.31224273 -156.625 64.4375 C-158.375 62.25 -158.375 62.25 -160.125 60.0625 C-156.375 55.1875 -156.375 55.1875 -154.125 54.0625 C-150.83203125 53.67578125 -150.83203125 53.67578125 -147.125 54.0625 C-144.38671875 56.23046875 -144.38671875 56.23046875 -141.8125 59.25 C-141.34448975 59.79100342 -140.87647949 60.33200684 -140.39428711 60.8894043 C-136.3198333 65.65998215 -132.49418487 70.63286535 -128.72265625 75.64453125 C-125.44473558 79.98944726 -122.02021257 84.21504841 -118.6015625 88.44946289 C-116.12277009 91.52993893 -113.68142476 94.62793386 -111.31640625 97.796875 C-110.87232422 98.38919922 -110.42824219 98.98152344 -109.97070312 99.59179688 C-108.76624823 101.20690305 -107.57220274 102.82975719 -106.37890625 104.453125 C-103.57938035 107.69417059 -101.10956038 109.64833088 -96.87890625 110.53125 C-96.15574219 110.5415625 -95.43257813 110.551875 -94.6875 110.5625 C-93.96691406 110.5934375 -93.24632812 110.624375 -92.50390625 110.65625 C-85.90962411 109.01038648 -82.14149163 102.67992612 -78.5625 97.375 C-77.51017594 95.84952771 -76.45675342 94.32481271 -75.40234375 92.80078125 C-74.59385986 91.62636475 -74.59385986 91.62636475 -73.76904297 90.42822266 C-71.10877164 86.60018149 -68.36603559 82.83291296 -65.625 79.0625 C-61.41715543 73.25756298 -57.2489007 67.42736142 -53.125 61.5625 C-48.46608873 54.93676602 -43.74225809 48.36086855 -38.98706055 41.80395508 C-35.77221286 37.3643577 -32.59566347 32.90074416 -29.45141602 28.41088867 C-25.28194579 22.45959356 -21.07601837 16.54237906 -16.6875 10.75 C-15.92566406 9.74324219 -15.16382813 8.73648438 -14.37890625 7.69921875 C-10.02474401 2.60552809 -6.68923694 -0.08575945 0 0 Z " fill="#50D98C" transform="translate(472.125,581.9375)"/>
<path d="M0 0 C2.24840498 1.41129 3.63483978 2.77358581 4.82421875 5.15234375 C5.84904249 11.74252972 5.84904249 11.74252972 3.35546875 15.17285156 C1.2489576 17.29921574 -0.93401815 19.29417426 -3.17578125 21.27734375 C-10.69490949 28.33438964 -15.84988675 34.77957233 -20.17578125 44.15234375 C-20.54960937 44.86261719 -20.9234375 45.57289063 -21.30859375 46.3046875 C-25.90358583 56.09491838 -23.14119636 67.23660649 -20.0859375 77.015625 C-18.89084438 81.13433649 -18.48196994 83.91238574 -19.17578125 88.15234375 C-22.09375221 91.76141309 -24.2729993 93.93611853 -28.92578125 94.46484375 C-35.73821136 93.80980239 -39.92887322 88.81539181 -44.2109375 83.859375 C-54.286417 69.97804837 -55.16098987 52.93547761 -52.59765625 36.4296875 C-48.45358214 22.43401902 -37.62812279 10.27516695 -25.1940918 3.04174805 C-17.43089605 -1.13728001 -8.52375235 -3.32074374 0 0 Z " fill="#FE99A1" transform="translate(351.17578125,144.84765625)"/>
<path d="M0 0 C0.33 0 0.66 0 1 0 C1.06870344 47.15228501 1.12154774 94.30456472 1.15319599 141.45688993 C1.156948 147.02676134 1.16083098 152.59663265 1.16479492 158.16650391 C1.16558185 159.27534026 1.16636878 160.3841766 1.16717956 161.52661406 C1.18022473 179.46824893 1.20387368 197.40985489 1.23145839 215.35147263 C1.25953733 233.76848053 1.27618152 252.18547332 1.28226548 270.60250175 C1.28637676 281.96192795 1.29935046 293.32127243 1.3237494 304.68067347 C1.3396373 312.47583902 1.34439345 320.27096248 1.34050413 328.06614305 C1.33858734 332.55997476 1.34147473 337.05366389 1.35761642 341.54747009 C1.37231486 345.66978662 1.37288854 349.79186595 1.36269668 353.91419385 C1.36143877 355.39761424 1.36515968 356.88105001 1.37464955 358.36444058 C1.48171292 376.14848309 -1.67855254 392.46623317 -14.3046875 405.734375 C-21.07502683 411.42538487 -29.14413634 415.22811082 -38 416 C-40.34260643 415.7397104 -42.6817571 415.42579972 -45 415 C-43.68925925 411.37468291 -42.10050354 408.53180227 -39.8125 405.4375 C-28.36848591 389.30756245 -20.78572923 371.17434567 -13.8125 352.75 C-13.24341919 351.27454712 -13.24341919 351.27454712 -12.6628418 349.76928711 C-11.34828 346.20792784 -10.16855287 342.61100045 -9 339 C-8.72093016 338.1574604 -8.44186033 337.3149208 -8.15433383 336.4468497 C-2.43969638 318.80858461 -0.97959285 302.24156145 -1.11765671 283.81794417 C-1.13801592 280.03842712 -1.11705377 276.25907802 -1.10160828 272.47956848 C-1.08034252 265.96356418 -1.08390464 259.44797703 -1.10525894 252.93197823 C-1.13601602 243.50828813 -1.12657547 234.08495486 -1.10781299 224.66124856 C-1.07831736 209.35980801 -1.07887844 194.05852946 -1.09960938 178.75708008 C-1.11963272 163.91949167 -1.12767713 149.08198532 -1.11816406 134.24438477 C-1.11758153 133.32694316 -1.11699901 132.40950155 -1.11639883 131.46425868 C-1.11038167 122.34320538 -1.10254103 113.22215377 -1.09439764 104.10110216 C-1.09125084 100.5578413 -1.08819708 97.01458037 -1.08520354 93.47131938 C-1.08372339 91.72352602 -1.08221265 89.97573267 -1.08067082 88.22793936 C-1.0710998 77.11489894 -1.07108456 66.0019126 -1.08175969 54.88887322 C-1.08710677 49.29942476 -1.08934282 43.70997645 -1.09073921 38.12052573 C-1.09213326 33.69775056 -1.09777109 29.2750083 -1.10669453 24.85224226 C-1.11209372 21.55302874 -1.11111191 18.25382293 -1.1111145 14.9546051 C-1.11491123 13.77488477 -1.11870796 12.59516443 -1.12261975 11.379695 C-1.1214622 10.30990339 -1.12030464 9.24011179 -1.11911201 8.13790226 C-1.12024848 7.21142889 -1.12138495 6.28495552 -1.12255585 5.3304072 C-1 3 -1 3 0 0 Z " fill="#D9D8D6" transform="translate(779,470)"/>
<path d="M0 0 C0.6918292 0.00322913 1.3836584 0.00645826 2.09645212 0.00978523 C4.42579649 0.02189534 6.75502499 0.04126081 9.08432007 0.06056213 C10.74961594 0.07070122 12.41491458 0.08039529 14.08021545 0.0896759 C18.61098215 0.11619401 23.14168492 0.1489659 27.67240191 0.1828258 C32.40362854 0.21713216 37.13488948 0.2457354 41.8661499 0.27493286 C50.82989457 0.33112186 59.79359627 0.39247067 68.75729406 0.4556542 C78.96026497 0.52732335 89.16327033 0.59326935 99.3662827 0.65872467 C120.35876568 0.79352635 141.35119473 0.93554756 162.34359741 1.08229065 C162.34359741 1.41229065 162.34359741 1.74229065 162.34359741 2.08229065 C105.91359741 2.41229065 49.48359741 2.74229065 -8.65640259 3.08229065 C-8.65640259 2.42229065 -8.65640259 1.76229065 -8.65640259 1.08229065 C-5.75148466 -0.37016831 -3.2458943 -0.0216393 0 0 Z " fill="#0B1415" transform="translate(548.6564025878906,553.9177093505859)"/>
<path d="M0 0 C2.96530497 1.35800471 5.29131271 2.92428263 7.75 5.0625 C8.67039062 5.85333984 8.67039062 5.85333984 9.609375 6.66015625 C10.29773438 7.32337891 10.29773438 7.32337891 11 8 C11 8.33 11 8.66 11 9 C3.35923782 9.0694906 -4.28149162 9.1228064 -11.92249775 9.15543652 C-15.47049936 9.17109693 -19.01828487 9.19234151 -22.56616211 9.22631836 C-26.64438967 9.26513007 -30.72239001 9.27970602 -34.80078125 9.29296875 C-36.07585037 9.30845261 -37.35091949 9.32393646 -38.66462708 9.33988953 C-39.84562485 9.34011612 -41.02662262 9.34034271 -42.2434082 9.34057617 C-43.80560844 9.35056892 -43.80560844 9.35056892 -45.39936829 9.36076355 C-48 9 -48 9 -51 6 C-23.775 5.505 -23.775 5.505 4 5 C2.68 3.35 1.36 1.7 0 0 Z " fill="#D1CFCB" transform="translate(328,371)"/>
<path d="M0 0 C1.97293722 3.30223849 2.24651783 5.78484263 2.23046875 9.60546875 C2.22853516 10.67087891 2.22660156 11.73628906 2.22460938 12.83398438 C2.21236328 13.94064453 2.20011719 15.04730469 2.1875 16.1875 C2.18685547 17.30576172 2.18621094 18.42402344 2.18554688 19.57617188 C2.14028159 27.85971841 2.14028159 27.85971841 1 29 C0.76807135 30.51469448 0.58784762 32.03754562 0.4375 33.5625 C0.35371094 34.38878906 0.26992187 35.21507812 0.18359375 36.06640625 C0.12300781 36.70449219 0.06242188 37.34257812 0 38 C-0.33 38 -0.66 38 -1 38 C-1.02497729 34.0347593 -1.0429894 30.06954995 -1.05493164 26.10424805 C-1.06235104 24.10268542 -1.07506659 22.10114467 -1.08789062 20.09960938 C-1.10499609 13.30874075 -0.93798004 6.72834499 0 0 Z " fill="#171A1A" transform="translate(247,187)"/>
<path d="M0 0 C4.27070558 -0.08692074 8.54118458 -0.14036515 12.8125 -0.1875 C14.63491211 -0.22520508 14.63491211 -0.22520508 16.49414062 -0.26367188 C18.23920898 -0.27817383 18.23920898 -0.27817383 20.01953125 -0.29296875 C21.09307861 -0.3086792 22.16662598 -0.32438965 23.27270508 -0.34057617 C26 0 26 0 29 3 C19.76 3 10.52 3 1 3 C0.67 2.01 0.34 1.02 0 0 Z " fill="#0F1314" transform="translate(368,70)"/>
<path d="M0 0 C0.33 0 0.66 0 1 0 C1.15284574 7.33659548 0.60824696 14.04467477 -2 21 C-2.66 21 -3.32 21 -4 21 C-3.71840367 18.06121273 -3.42518615 15.12439587 -3.125 12.1875 C-3.04636719 11.35412109 -2.96773437 10.52074219 -2.88671875 9.66210938 C-2.80292969 8.85966797 -2.71914063 8.05722656 -2.6328125 7.23046875 C-2.55949707 6.49207764 -2.48618164 5.75368652 -2.41064453 4.99291992 C-2 3 -2 3 0 0 Z " fill="#E9E7E3" transform="translate(780,222)"/>
<path d="M0 0 C4.99927744 0.44438022 9.38799983 1.94577453 13.8125 4.25 C7.45262196 4.45190089 1.96028871 3.8777833 -4.1875 2.25 C-2.1875 0.25 -2.1875 0.25 0 0 Z " fill="#EDECEA" transform="translate(657.1875,67.75)"/>
<path d="M0 0 C1.93884889 0.28256092 3.87605961 0.5763793 5.8125 0.875 C6.89144531 1.03742188 7.97039063 1.19984375 9.08203125 1.3671875 C12 2 12 2 15 4 C11.14903552 5.48114019 8.76540594 4.38321035 5 3 C3.33911955 2.63893903 1.67381019 2.29537827 0 2 C0 1.34 0 0.68 0 0 Z " fill="#121415" transform="translate(751,380)"/>
<path d="M0 0 C0.99 0.495 0.99 0.495 2 1 C4.38056989 8.64288227 4.38056989 8.64288227 3 13 C2.67 11.35 2.34 9.7 2 8 C1.34 8 0.68 8 0 8 C0 5.36 0 2.72 0 0 Z " fill="#111414" transform="translate(772,167)"/>
<path d="M0 0 C0.33 0.99 0.66 1.98 1 3 C-1.31 5.31 -3.62 7.62 -6 10 C-6.66 9.34 -7.32 8.68 -8 8 C-5.36 5.36 -2.72 2.72 0 0 Z " fill="#EF6660" transform="translate(312,126)"/>
<path d="M0 0 C0.33 1.32 0.66 2.64 1 4 C1.66 4 2.32 4 3 4 C2.67 5.65 2.34 7.3 2 9 C2.66 9 3.32 9 4 9 C3 12 3 12 1 13 C-0.10228696 8.59085217 -0.07654536 4.51617599 0 0 Z " fill="#E7E7E3" transform="translate(776,174)"/>
<path d="M0 0 C1.32 0 2.64 0 4 0 C4 0.66 4 1.32 4 2 C5.423125 2.2165625 5.423125 2.2165625 6.875 2.4375 C10 3 10 3 12 4 C12 4.66 12 5.32 12 6 C10.39402675 5.54803755 8.79027492 5.08817673 7.1875 4.625 C6.29417969 4.36976562 5.40085937 4.11453125 4.48046875 3.8515625 C2 3 2 3 -1 1 C-0.67 0.67 -0.34 0.34 0 0 Z " fill="#F0EFED" transform="translate(683,74)"/>
<path d="M0 0 C0.99 0 1.98 0 3 0 C3.99 3.96 4.98 7.92 6 12 C5.01 11.01 4.02 10.02 3 9 C3 7.68 3 6.36 3 5 C2.34 5 1.68 5 1 5 C0.67 3.35 0.34 1.7 0 0 Z " fill="#1B1D1D" transform="translate(803,424)"/>
<path d="M0 0 C0.33 0.99 0.66 1.98 1 3 C-1.97 5.475 -1.97 5.475 -5 8 C-5 5 -5 5 -2.5 2.3125 C-1.675 1.549375 -0.85 0.78625 0 0 Z " fill="#EBEBE8" transform="translate(723,342)"/>
<path d="M0 0 C2.09678815 3.40728075 2.4133256 6.03207421 2 10 C0.48046875 12.1875 0.48046875 12.1875 -1 14 C-1.027193 12.41676312 -1.04648306 10.83338938 -1.0625 9.25 C-1.07410156 8.36828125 -1.08570313 7.4865625 -1.09765625 6.578125 C-1.00826198 4.2181162 -0.66912821 2.25501476 0 0 Z " fill="#F0ECE7" transform="translate(245,186)"/>
<path d="M0 0 C0.66 0.33 1.32 0.66 2 1 C0.515 6.445 0.515 6.445 -1 12 C-1.33 12 -1.66 12 -2 12 C-2.17835515 7.45194365 -1.99785435 4.1205746 0 0 Z " fill="#171919" transform="translate(217,429)"/>
<path d="M0 0 C0.99 0 1.98 0 3 0 C2.67 2.64 2.34 5.28 2 8 C1.01 8.33 0.02 8.66 -1 9 C-0.67 6.03 -0.34 3.06 0 0 Z " fill="#191D1D" transform="translate(249,176)"/>
<path d="M0 0 C0.33 0.99 0.66 1.98 1 3 C0.01 3.66 -0.98 4.32 -2 5 C-1.34 3.35 -0.68 1.7 0 0 Z M-3 5 C-2.34 5.66 -1.68 6.32 -1 7 C-1.66 7 -2.32 7 -3 7 C-3.33 8.32 -3.66 9.64 -4 11 C-4.99 10.67 -5.98 10.34 -7 10 C-5.68 8.35 -4.36 6.7 -3 5 Z " fill="#101110" transform="translate(388,645)"/>
<path d="M0 0 C3.375 0.6875 3.375 0.6875 7 2 C8.4375 4.625 8.4375 4.625 9 7 C6.03 5.35 3.06 3.7 0 2 C0 1.34 0 0.68 0 0 Z " fill="#EFEEEC" transform="translate(461,91)"/>
<path d="M0 0 C0 0.66 0 1.32 0 2 C-5.75 3.125 -5.75 3.125 -8 2 C-8.33 2.66 -8.66 3.32 -9 4 C-9 3.01 -9 2.02 -9 1 C-2.25 -1.125 -2.25 -1.125 0 0 Z " fill="#0F1213" transform="translate(607,75)"/>
<path d="M0 0 C5.78461538 4.30769231 5.78461538 4.30769231 6.875 7.8125 C6.936875 8.8953125 6.936875 8.8953125 7 10 C4.4000702 7.48972295 2.00908773 5.0136316 0 2 C0 1.34 0 0.68 0 0 Z " fill="#EFEEED" transform="translate(791,399)"/>
<path d="M0 0 C3.7952131 1.49097658 5.61042731 3.75700849 8 7 C7.01 7 6.02 7 5 7 C0 1.53488372 0 1.53488372 0 0 Z " fill="#E6E5E3" transform="translate(493,116)"/>
<path d="M0 0 C-1.65 0.33 -3.3 0.66 -5 1 C-5 1.66 -5 2.32 -5 3 C-6.32 2.67 -7.64 2.34 -9 2 C-8 0 -8 0 -6.1875 -0.6875 C-3.81180233 -1.02688538 -2.26664171 -0.72856341 0 0 Z " fill="#171A1A" transform="translate(617,73)"/>
<path d="M0 0 C0.66 0.33 1.32 0.66 2 1 C1.34 2.32 0.68 3.64 0 5 C-0.66 4.01 -1.32 3.02 -2 2 C-1.34 1.34 -0.68 0.68 0 0 Z M-4 3 C-2 4 -2 4 -2 4 Z M-4 5 C-3.01 5.33 -2.02 5.66 -1 6 C-2.32 6.33 -3.64 6.66 -5 7 C-4.67 6.34 -4.34 5.68 -4 5 Z " fill="#101516" transform="translate(304,94)"/>
</svg>
